<svg version="1.1" xmlns="http://www.w3.org/2000/svg" xmlns:xlink="http://www.w3.org/1999/xlink" width="1366.86186" height="989.98498" viewBox="0,0,1366.86186,989.98498"><defs><radialGradient cx="87.35736" cy="35.67568" r="2.5" gradientUnits="userSpaceOnUse" id="color-1"><stop offset="0" stop-color="#ffffff" stop-opacity="0.46667"/><stop offset="1" stop-color="#ffffff" stop-opacity="0"/></radialGradient><radialGradient cx="181.95195" cy="112.25225" r="2.5" gradientUnits="userSpaceOnUse" id="color-2"><stop offset="0" stop-color="#ffffff" stop-opacity="0.46667"/><stop offset="1" stop-color="#ffffff" stop-opacity="0"/></radialGradient><radialGradient cx="88.85886" cy="154.2943" r="2.5" gradientUnits="userSpaceOnUse" id="color-3"><stop offset="0" stop-color="#ffffff" stop-opacity="0.46667"/><stop offset="1" stop-color="#ffffff" stop-opacity="0"/></radialGradient><radialGradient cx="273.54355" cy="369.00901" r="2.5" gradientUnits="userSpaceOnUse" id="color-4"><stop offset="0" stop-color="#ffffff" stop-opacity="0.46667"/><stop offset="1" stop-color="#ffffff" stop-opacity="0"/></radialGradient><radialGradient cx="438.70871" cy="134.77478" r="2.5" gradientUnits="userSpaceOnUse" id="color-5"><stop offset="0" stop-color="#ffffff" stop-opacity="0.46667"/><stop offset="1" stop-color="#ffffff" stop-opacity="0"/></radialGradient><radialGradient cx="216.48649" cy="193.33334" r="2.5" gradientUnits="userSpaceOnUse" id="color-6"><stop offset="0" stop-color="#ffffff" stop-opacity="0.46667"/><stop offset="1" stop-color="#ffffff" stop-opacity="0"/></radialGradient><radialGradient cx="142.91292" cy="337.47748" r="2.5" gradientUnits="userSpaceOnUse" id="color-7"><stop offset="0" stop-color="#ffffff" stop-opacity="0.46667"/><stop offset="1" stop-color="#ffffff" stop-opacity="0"/></radialGradient><radialGradient cx="96.36637" cy="499.63964" r="2.5" gradientUnits="userSpaceOnUse" id="color-8"><stop offset="0" stop-color="#ffffff" stop-opacity="0.46667"/><stop offset="1" stop-color="#ffffff" stop-opacity="0"/></radialGradient><radialGradient cx="327.5976" cy="556.6967" r="2.5" gradientUnits="userSpaceOnUse" id="color-9"><stop offset="0" stop-color="#ffffff" stop-opacity="0.46667"/><stop offset="1" stop-color="#ffffff" stop-opacity="0"/></radialGradient><radialGradient cx="339.60961" cy="250.39039" r="2.5" gradientUnits="userSpaceOnUse" id="color-10"><stop offset="0" stop-color="#ffffff" stop-opacity="0.46667"/><stop offset="1" stop-color="#ffffff" stop-opacity="0"/></radialGradient><radialGradient cx="342.61262" cy="43.18319" r="2.5" gradientUnits="userSpaceOnUse" id="color-11"><stop offset="0" stop-color="#ffffff" stop-opacity="0.46667"/><stop offset="1" stop-color="#ffffff" stop-opacity="0"/></radialGradient><radialGradient cx="662.43243" cy="65.7057" r="2.5" gradientUnits="userSpaceOnUse" id="color-12"><stop offset="0" stop-color="#ffffff" stop-opacity="0.46667"/><stop offset="1" stop-color="#ffffff" stop-opacity="0"/></radialGradient><radialGradient cx="447.71772" cy="301.44144" r="2.5" gradientUnits="userSpaceOnUse" id="color-13"><stop offset="0" stop-color="#ffffff" stop-opacity="0.46667"/><stop offset="1" stop-color="#ffffff" stop-opacity="0"/></radialGradient><radialGradient cx="555.82583" cy="236.87688" r="2.5" gradientUnits="userSpaceOnUse" id="color-14"><stop offset="0" stop-color="#ffffff" stop-opacity="0.46667"/><stop offset="1" stop-color="#ffffff" stop-opacity="0"/></radialGradient><radialGradient cx="570.84084" cy="109.24925" r="2.5" gradientUnits="userSpaceOnUse" id="color-15"><stop offset="0" stop-color="#ffffff" stop-opacity="0.46667"/><stop offset="1" stop-color="#ffffff" stop-opacity="0"/></radialGradient><radialGradient cx="444.71471" cy="403.54354" r="2.5" gradientUnits="userSpaceOnUse" id="color-16"><stop offset="0" stop-color="#ffffff" stop-opacity="0.46667"/><stop offset="1" stop-color="#ffffff" stop-opacity="0"/></radialGradient><radialGradient cx="805.07508" cy="432.07207" r="2.5" gradientUnits="userSpaceOnUse" id="color-17"><stop offset="0" stop-color="#ffffff" stop-opacity="0.46667"/><stop offset="1" stop-color="#ffffff" stop-opacity="0"/></radialGradient><radialGradient cx="842.61261" cy="133.27327" r="2.5" gradientUnits="userSpaceOnUse" id="color-18"><stop offset="0" stop-color="#ffffff" stop-opacity="0.46667"/><stop offset="1" stop-color="#ffffff" stop-opacity="0"/></radialGradient><radialGradient cx="614.38438" cy="353.99399" r="2.5" gradientUnits="userSpaceOnUse" id="color-19"><stop offset="0" stop-color="#ffffff" stop-opacity="0.46667"/><stop offset="1" stop-color="#ffffff" stop-opacity="0"/></radialGradient><radialGradient cx="812.58258" cy="323.96396" r="2.5" gradientUnits="userSpaceOnUse" id="color-20"><stop offset="0" stop-color="#ffffff" stop-opacity="0.46667"/><stop offset="1" stop-color="#ffffff" stop-opacity="0"/></radialGradient><radialGradient cx="660.93093" cy="176.81682" r="2.5" gradientUnits="userSpaceOnUse" id="color-21"><stop offset="0" stop-color="#ffffff" stop-opacity="0.46667"/><stop offset="1" stop-color="#ffffff" stop-opacity="0"/></radialGradient><radialGradient cx="806.57658" cy="588.22823" r="2.5" gradientUnits="userSpaceOnUse" id="color-22"><stop offset="0" stop-color="#ffffff" stop-opacity="0.46667"/><stop offset="1" stop-color="#ffffff" stop-opacity="0"/></radialGradient><radialGradient cx="591.86186" cy="564.2042" r="2.5" gradientUnits="userSpaceOnUse" id="color-23"><stop offset="0" stop-color="#ffffff" stop-opacity="0.46667"/><stop offset="1" stop-color="#ffffff" stop-opacity="0"/></radialGradient><radialGradient cx="629.3994" cy="442.58258" r="2.5" gradientUnits="userSpaceOnUse" id="color-24"><stop offset="0" stop-color="#ffffff" stop-opacity="0.46667"/><stop offset="1" stop-color="#ffffff" stop-opacity="0"/></radialGradient><radialGradient cx="922.19219" cy="631.77177" r="2.5" gradientUnits="userSpaceOnUse" id="color-25"><stop offset="0" stop-color="#ffffff" stop-opacity="0.46667"/><stop offset="1" stop-color="#ffffff" stop-opacity="0"/></radialGradient><radialGradient cx="441.71171" cy="567.20721" r="2.5" gradientUnits="userSpaceOnUse" id="color-26"><stop offset="0" stop-color="#ffffff" stop-opacity="0.46667"/><stop offset="1" stop-color="#ffffff" stop-opacity="0"/></radialGradient><radialGradient cx="202.97297" cy="651.29129" r="2.5" gradientUnits="userSpaceOnUse" id="color-27"><stop offset="0" stop-color="#ffffff" stop-opacity="0.46667"/><stop offset="1" stop-color="#ffffff" stop-opacity="0"/></radialGradient><radialGradient cx="575.34535" cy="705.34535" r="2.5" gradientUnits="userSpaceOnUse" id="color-28"><stop offset="0" stop-color="#ffffff" stop-opacity="0.46667"/><stop offset="1" stop-color="#ffffff" stop-opacity="0"/></radialGradient><radialGradient cx="509.27928" cy="837.47748" r="2.5" gradientUnits="userSpaceOnUse" id="color-29"><stop offset="0" stop-color="#ffffff" stop-opacity="0.46667"/><stop offset="1" stop-color="#ffffff" stop-opacity="0"/></radialGradient><radialGradient cx="226.997" cy="811.95195" r="2.5" gradientUnits="userSpaceOnUse" id="color-30"><stop offset="0" stop-color="#ffffff" stop-opacity="0.46667"/><stop offset="1" stop-color="#ffffff" stop-opacity="0"/></radialGradient><radialGradient cx="225.4955" cy="747.38739" r="2.5" gradientUnits="userSpaceOnUse" id="color-31"><stop offset="0" stop-color="#ffffff" stop-opacity="0.46667"/><stop offset="1" stop-color="#ffffff" stop-opacity="0"/></radialGradient><radialGradient cx="36.30631" cy="804.44444" r="2.5" gradientUnits="userSpaceOnUse" id="color-32"><stop offset="0" stop-color="#ffffff" stop-opacity="0.46667"/><stop offset="1" stop-color="#ffffff" stop-opacity="0"/></radialGradient><radialGradient cx="-32.76276" cy="717.35736" r="2.5" gradientUnits="userSpaceOnUse" id="color-33"><stop offset="0" stop-color="#ffffff" stop-opacity="0.46667"/><stop offset="1" stop-color="#ffffff" stop-opacity="0"/></radialGradient><radialGradient cx="-56.78679" cy="562.7027" r="2.5" gradientUnits="userSpaceOnUse" id="color-34"><stop offset="0" stop-color="#ffffff" stop-opacity="0.46667"/><stop offset="1" stop-color="#ffffff" stop-opacity="0"/></radialGradient><radialGradient cx="-25.25526" cy="311.95195" r="2.5" gradientUnits="userSpaceOnUse" id="color-35"><stop offset="0" stop-color="#ffffff" stop-opacity="0.46667"/><stop offset="1" stop-color="#ffffff" stop-opacity="0"/></radialGradient><radialGradient cx="-89.81982" cy="106.24625" r="2.5" gradientUnits="userSpaceOnUse" id="color-36"><stop offset="0" stop-color="#ffffff" stop-opacity="0.46667"/><stop offset="1" stop-color="#ffffff" stop-opacity="0"/></radialGradient><radialGradient cx="-25.25526" cy="-28.88889" r="2.5" gradientUnits="userSpaceOnUse" id="color-37"><stop offset="0" stop-color="#ffffff" stop-opacity="0.46667"/><stop offset="1" stop-color="#ffffff" stop-opacity="0"/></radialGradient><radialGradient cx="84.35435" cy="-99.45946" r="2.5" gradientUnits="userSpaceOnUse" id="color-38"><stop offset="0" stop-color="#ffffff" stop-opacity="0.46667"/><stop offset="1" stop-color="#ffffff" stop-opacity="0"/></radialGradient><radialGradient cx="341.11111" cy="-55.91592" r="2.5" gradientUnits="userSpaceOnUse" id="color-39"><stop offset="0" stop-color="#ffffff" stop-opacity="0.46667"/><stop offset="1" stop-color="#ffffff" stop-opacity="0"/></radialGradient><radialGradient cx="141.41141" cy="-33.39339" r="2.5" gradientUnits="userSpaceOnUse" id="color-40"><stop offset="0" stop-color="#ffffff" stop-opacity="0.46667"/><stop offset="1" stop-color="#ffffff" stop-opacity="0"/></radialGradient><radialGradient cx="489.75976" cy="-39.3994" r="2.5" gradientUnits="userSpaceOnUse" id="color-41"><stop offset="0" stop-color="#ffffff" stop-opacity="0.46667"/><stop offset="1" stop-color="#ffffff" stop-opacity="0"/></radialGradient><radialGradient cx="461.23123" cy="83.72372" r="2.5" gradientUnits="userSpaceOnUse" id="color-42"><stop offset="0" stop-color="#ffffff" stop-opacity="0.46667"/><stop offset="1" stop-color="#ffffff" stop-opacity="0"/></radialGradient><radialGradient cx="841.11111" cy="-0.36036" r="2.5" gradientUnits="userSpaceOnUse" id="color-43"><stop offset="0" stop-color="#ffffff" stop-opacity="0.46667"/><stop offset="1" stop-color="#ffffff" stop-opacity="0"/></radialGradient><radialGradient cx="742.01201" cy="91.23123" r="2.5" gradientUnits="userSpaceOnUse" id="color-44"><stop offset="0" stop-color="#ffffff" stop-opacity="0.46667"/><stop offset="1" stop-color="#ffffff" stop-opacity="0"/></radialGradient><radialGradient cx="901.17117" cy="275.91592" r="2.5" gradientUnits="userSpaceOnUse" id="color-45"><stop offset="0" stop-color="#ffffff" stop-opacity="0.46667"/><stop offset="1" stop-color="#ffffff" stop-opacity="0"/></radialGradient><radialGradient cx="754.02402" cy="272.91291" r="2.5" gradientUnits="userSpaceOnUse" id="color-46"><stop offset="0" stop-color="#ffffff" stop-opacity="0.46667"/><stop offset="1" stop-color="#ffffff" stop-opacity="0"/></radialGradient><radialGradient cx="931.2012" cy="442.58258" r="2.5" gradientUnits="userSpaceOnUse" id="color-47"><stop offset="0" stop-color="#ffffff" stop-opacity="0.46667"/><stop offset="1" stop-color="#ffffff" stop-opacity="0"/></radialGradient><radialGradient cx="708.97898" cy="601.74174" r="2.5" gradientUnits="userSpaceOnUse" id="color-48"><stop offset="0" stop-color="#ffffff" stop-opacity="0.46667"/><stop offset="1" stop-color="#ffffff" stop-opacity="0"/></radialGradient><radialGradient cx="1103.87387" cy="523.66366" r="2.5" gradientUnits="userSpaceOnUse" id="color-49"><stop offset="0" stop-color="#ffffff" stop-opacity="0.46667"/><stop offset="1" stop-color="#ffffff" stop-opacity="0"/></radialGradient><radialGradient cx="1141.41141" cy="248.88889" r="2.5" gradientUnits="userSpaceOnUse" id="color-50"><stop offset="0" stop-color="#ffffff" stop-opacity="0.46667"/><stop offset="1" stop-color="#ffffff" stop-opacity="0"/></radialGradient><radialGradient cx="1025.7958" cy="227.86787" r="2.5" gradientUnits="userSpaceOnUse" id="color-51"><stop offset="0" stop-color="#ffffff" stop-opacity="0.46667"/><stop offset="1" stop-color="#ffffff" stop-opacity="0"/></radialGradient><radialGradient cx="1148.91892" cy="56.6967" r="2.5" gradientUnits="userSpaceOnUse" id="color-52"><stop offset="0" stop-color="#ffffff" stop-opacity="0.46667"/><stop offset="1" stop-color="#ffffff" stop-opacity="0"/></radialGradient><radialGradient cx="1036.30631" cy="-117.47748" r="2.5" gradientUnits="userSpaceOnUse" id="color-53"><stop offset="0" stop-color="#ffffff" stop-opacity="0.46667"/><stop offset="1" stop-color="#ffffff" stop-opacity="0"/></radialGradient><radialGradient cx="850.12012" cy="-78.43844" r="2.5" gradientUnits="userSpaceOnUse" id="color-54"><stop offset="0" stop-color="#ffffff" stop-opacity="0.46667"/><stop offset="1" stop-color="#ffffff" stop-opacity="0"/></radialGradient><radialGradient cx="708.97898" cy="-99.45946" r="2.5" gradientUnits="userSpaceOnUse" id="color-55"><stop offset="0" stop-color="#ffffff" stop-opacity="0.46667"/><stop offset="1" stop-color="#ffffff" stop-opacity="0"/></radialGradient><radialGradient cx="542.31231" cy="-6.36637" r="2.5" gradientUnits="userSpaceOnUse" id="color-56"><stop offset="0" stop-color="#ffffff" stop-opacity="0.46667"/><stop offset="1" stop-color="#ffffff" stop-opacity="0"/></radialGradient><radialGradient cx="474.74474" cy="-99.45946" r="2.5" gradientUnits="userSpaceOnUse" id="color-57"><stop offset="0" stop-color="#ffffff" stop-opacity="0.46667"/><stop offset="1" stop-color="#ffffff" stop-opacity="0"/></radialGradient><radialGradient cx="186.45646" cy="-70.93093" r="2.5" gradientUnits="userSpaceOnUse" id="color-58"><stop offset="0" stop-color="#ffffff" stop-opacity="0.46667"/><stop offset="1" stop-color="#ffffff" stop-opacity="0"/></radialGradient><radialGradient cx="-37.26727" cy="-127.98799" r="2.5" gradientUnits="userSpaceOnUse" id="color-59"><stop offset="0" stop-color="#ffffff" stop-opacity="0.46667"/><stop offset="1" stop-color="#ffffff" stop-opacity="0"/></radialGradient><radialGradient cx="-128.85886" cy="67.20721" r="2.5" gradientUnits="userSpaceOnUse" id="color-60"><stop offset="0" stop-color="#ffffff" stop-opacity="0.46667"/><stop offset="1" stop-color="#ffffff" stop-opacity="0"/></radialGradient><radialGradient cx="-202.43243" cy="268.40841" r="2.5" gradientUnits="userSpaceOnUse" id="color-61"><stop offset="0" stop-color="#ffffff" stop-opacity="0.46667"/><stop offset="1" stop-color="#ffffff" stop-opacity="0"/></radialGradient><radialGradient cx="-80.81081" cy="445.58559" r="2.5" gradientUnits="userSpaceOnUse" id="color-62"><stop offset="0" stop-color="#ffffff" stop-opacity="0.46667"/><stop offset="1" stop-color="#ffffff" stop-opacity="0"/></radialGradient><radialGradient cx="-182.91291" cy="469.60961" r="2.5" gradientUnits="userSpaceOnUse" id="color-63"><stop offset="0" stop-color="#ffffff" stop-opacity="0.46667"/><stop offset="1" stop-color="#ffffff" stop-opacity="0"/></radialGradient><radialGradient cx="-176.90691" cy="676.81682" r="2.5" gradientUnits="userSpaceOnUse" id="color-64"><stop offset="0" stop-color="#ffffff" stop-opacity="0.46667"/><stop offset="1" stop-color="#ffffff" stop-opacity="0"/></radialGradient><radialGradient cx="-209.93994" cy="786.42643" r="2.5" gradientUnits="userSpaceOnUse" id="color-65"><stop offset="0" stop-color="#ffffff" stop-opacity="0.46667"/><stop offset="1" stop-color="#ffffff" stop-opacity="0"/></radialGradient><radialGradient cx="308.07808" cy="856.997" r="2.5" gradientUnits="userSpaceOnUse" id="color-66"><stop offset="0" stop-color="#ffffff" stop-opacity="0.46667"/><stop offset="1" stop-color="#ffffff" stop-opacity="0"/></radialGradient><radialGradient cx="899.66967" cy="753.39339" r="2.5" gradientUnits="userSpaceOnUse" id="color-67"><stop offset="0" stop-color="#ffffff" stop-opacity="0.46667"/><stop offset="1" stop-color="#ffffff" stop-opacity="0"/></radialGradient><radialGradient cx="1124.89489" cy="798.43844" r="2.5" gradientUnits="userSpaceOnUse" id="color-68"><stop offset="0" stop-color="#ffffff" stop-opacity="0.46667"/><stop offset="1" stop-color="#ffffff" stop-opacity="0"/></radialGradient><radialGradient cx="1132.4024" cy="624.26426" r="2.5" gradientUnits="userSpaceOnUse" id="color-69"><stop offset="0" stop-color="#ffffff" stop-opacity="0.46667"/><stop offset="1" stop-color="#ffffff" stop-opacity="0"/></radialGradient><radialGradient cx="642.91291" cy="846.48649" r="2.5" gradientUnits="userSpaceOnUse" id="color-70"><stop offset="0" stop-color="#ffffff" stop-opacity="0.46667"/><stop offset="1" stop-color="#ffffff" stop-opacity="0"/></radialGradient><radialGradient cx="965.73574" cy="840.48048" r="2.5" gradientUnits="userSpaceOnUse" id="color-71"><stop offset="0" stop-color="#ffffff" stop-opacity="0.46667"/><stop offset="1" stop-color="#ffffff" stop-opacity="0"/></radialGradient><radialGradient cx="736.00601" cy="739.87988" r="2.5" gradientUnits="userSpaceOnUse" id="color-72"><stop offset="0" stop-color="#ffffff" stop-opacity="0.46667"/><stop offset="1" stop-color="#ffffff" stop-opacity="0"/></radialGradient><radialGradient cx="350.12012" cy="699.33934" r="2.5" gradientUnits="userSpaceOnUse" id="color-73"><stop offset="0" stop-color="#ffffff" stop-opacity="0.46667"/><stop offset="1" stop-color="#ffffff" stop-opacity="0"/></radialGradient><radialGradient cx="243.51351" cy="474.11411" r="2.5" gradientUnits="userSpaceOnUse" id="color-74"><stop offset="0" stop-color="#ffffff" stop-opacity="0.46667"/><stop offset="1" stop-color="#ffffff" stop-opacity="0"/></radialGradient><radialGradient cx="-185.91592" cy="-82.94294" r="2.5" gradientUnits="userSpaceOnUse" id="color-75"><stop offset="0" stop-color="#ffffff" stop-opacity="0.46667"/><stop offset="1" stop-color="#ffffff" stop-opacity="0"/></radialGradient><radialGradient cx="566.33634" cy="-87.44745" r="2.5" gradientUnits="userSpaceOnUse" id="color-76"><stop offset="0" stop-color="#ffffff" stop-opacity="0.46667"/><stop offset="1" stop-color="#ffffff" stop-opacity="0"/></radialGradient><radialGradient cx="211.98198" cy="-118.97898" r="2.5" gradientUnits="userSpaceOnUse" id="color-77"><stop offset="0" stop-color="#ffffff" stop-opacity="0.46667"/><stop offset="1" stop-color="#ffffff" stop-opacity="0"/></radialGradient><radialGradient cx="1151.92192" cy="-126.48649" r="2.5" gradientUnits="userSpaceOnUse" id="color-78"><stop offset="0" stop-color="#ffffff" stop-opacity="0.46667"/><stop offset="1" stop-color="#ffffff" stop-opacity="0"/></radialGradient><radialGradient cx="1034.8048" cy="83.72372" r="2.5" gradientUnits="userSpaceOnUse" id="color-79"><stop offset="0" stop-color="#ffffff" stop-opacity="0.46667"/><stop offset="1" stop-color="#ffffff" stop-opacity="0"/></radialGradient><radialGradient cx="-59.78979" cy="838.97898" r="2.5" gradientUnits="userSpaceOnUse" id="color-80"><stop offset="0" stop-color="#ffffff" stop-opacity="0.46667"/><stop offset="1" stop-color="#ffffff" stop-opacity="0"/></radialGradient></defs><g transform="translate(212.43994,130.48799)"><g data-paper-data="{&quot;isPaintingLayer&quot;:true}" fill-rule="nonzero" stroke="none" stroke-width="0.5" stroke-linecap="butt" stroke-linejoin="miter" stroke-miterlimit="10" stroke-dasharray="" stroke-dashoffset="0" style="mix-blend-mode: normal"><path d="M84.85736,35.67568c0,-1.38071 1.11929,-2.5 2.5,-2.5c1.38071,0 2.5,1.11929 2.5,2.5c0,1.38071 -1.11929,2.5 -2.5,2.5c-1.38071,0 -2.5,-1.11929 -2.5,-2.5z" fill="url(#color-1)"/><path d="M179.45195,112.25225c0,-1.38071 1.11929,-2.5 2.5,-2.5c1.38071,0 2.5,1.11929 2.5,2.5c0,1.38071 -1.11929,2.5 -2.5,2.5c-1.38071,0 -2.5,-1.11929 -2.5,-2.5z" fill="url(#color-2)"/><path d="M86.35886,154.2943c0,-1.38071 1.11929,-2.5 2.5,-2.5c1.38071,0 2.5,1.11929 2.5,2.5c0,1.38071 -1.11929,2.5 -2.5,2.5c-1.38071,0 -2.5,-1.11929 -2.5,-2.5z" fill="url(#color-3)"/><path d="M271.04355,369.00901c0,-1.38071 1.11929,-2.5 2.5,-2.5c1.38071,0 2.5,1.11929 2.5,2.5c0,1.38071 -1.11929,2.5 -2.5,2.5c-1.38071,0 -2.5,-1.11929 -2.5,-2.5z" fill="url(#color-4)"/><path d="M436.20871,134.77478c0,-1.38071 1.11929,-2.5 2.5,-2.5c1.38071,0 2.5,1.11929 2.5,2.5c0,1.38071 -1.11929,2.5 -2.5,2.5c-1.38071,0 -2.5,-1.11929 -2.5,-2.5z" fill="url(#color-5)"/><path d="M213.98649,193.33334c0,-1.38071 1.11929,-2.5 2.5,-2.5c1.38071,0 2.5,1.11929 2.5,2.5c0,1.38071 -1.11929,2.5 -2.5,2.5c-1.38071,0 -2.5,-1.11929 -2.5,-2.5z" fill="url(#color-6)"/><path d="M140.41292,337.47748c0,-1.38071 1.11929,-2.5 2.5,-2.5c1.38071,0 2.5,1.11929 2.5,2.5c0,1.38071 -1.11929,2.5 -2.5,2.5c-1.38071,0 -2.5,-1.11929 -2.5,-2.5z" fill="url(#color-7)"/><path d="M93.86637,499.63964c0,-1.38071 1.11929,-2.5 2.5,-2.5c1.38071,0 2.5,1.11929 2.5,2.5c0,1.38071 -1.11929,2.5 -2.5,2.5c-1.38071,0 -2.5,-1.11929 -2.5,-2.5z" fill="url(#color-8)"/><path d="M325.0976,556.6967c0,-1.38071 1.11929,-2.5 2.5,-2.5c1.38071,0 2.5,1.11929 2.5,2.5c0,1.38071 -1.11929,2.5 -2.5,2.5c-1.38071,0 -2.5,-1.11929 -2.5,-2.5z" fill="url(#color-9)"/><path d="M337.10961,250.39039c0,-1.38071 1.11929,-2.5 2.5,-2.5c1.38071,0 2.5,1.11929 2.5,2.5c0,1.38071 -1.11929,2.5 -2.5,2.5c-1.38071,0 -2.5,-1.11929 -2.5,-2.5z" fill="url(#color-10)"/><path d="M340.11262,43.18319c0,-1.38071 1.11929,-2.5 2.5,-2.5c1.38071,0 2.5,1.11929 2.5,2.5c0,1.38071 -1.11929,2.5 -2.5,2.5c-1.38071,0 -2.5,-1.11929 -2.5,-2.5z" fill="url(#color-11)"/><path d="M659.93243,65.7057c0,-1.38071 1.11929,-2.5 2.5,-2.5c1.38071,0 2.5,1.11929 2.5,2.5c0,1.38071 -1.11929,2.5 -2.5,2.5c-1.38071,0 -2.5,-1.11929 -2.5,-2.5z" fill="url(#color-12)"/><path d="M445.21772,301.44144c0,-1.38071 1.11929,-2.5 2.5,-2.5c1.38071,0 2.5,1.11929 2.5,2.5c0,1.38071 -1.11929,2.5 -2.5,2.5c-1.38071,0 -2.5,-1.11929 -2.5,-2.5z" fill="url(#color-13)"/><path d="M553.32583,236.87688c0,-1.38071 1.11929,-2.5 2.5,-2.5c1.38071,0 2.5,1.11929 2.5,2.5c0,1.38071 -1.11929,2.5 -2.5,2.5c-1.38071,0 -2.5,-1.11929 -2.5,-2.5z" fill="url(#color-14)"/><path d="M568.34084,109.24925c0,-1.38071 1.11929,-2.5 2.5,-2.5c1.38071,0 2.5,1.11929 2.5,2.5c0,1.38071 -1.11929,2.5 -2.5,2.5c-1.38071,0 -2.5,-1.11929 -2.5,-2.5z" fill="url(#color-15)"/><path d="M442.21471,403.54354c0,-1.38071 1.11929,-2.5 2.5,-2.5c1.38071,0 2.5,1.11929 2.5,2.5c0,1.38071 -1.11929,2.5 -2.5,2.5c-1.38071,0 -2.5,-1.11929 -2.5,-2.5z" fill="url(#color-16)"/><path d="M802.57508,432.07207c0,-1.38071 1.11929,-2.5 2.5,-2.5c1.38071,0 2.5,1.11929 2.5,2.5c0,1.38071 -1.11929,2.5 -2.5,2.5c-1.38071,0 -2.5,-1.11929 -2.5,-2.5z" fill="url(#color-17)"/><path d="M840.11261,133.27327c0,-1.38071 1.11929,-2.5 2.5,-2.5c1.38071,0 2.5,1.11929 2.5,2.5c0,1.38071 -1.11929,2.5 -2.5,2.5c-1.38071,0 -2.5,-1.11929 -2.5,-2.5z" fill="url(#color-18)"/><path d="M611.88438,353.99399c0,-1.38071 1.11929,-2.5 2.5,-2.5c1.38071,0 2.5,1.11929 2.5,2.5c0,1.38071 -1.11929,2.5 -2.5,2.5c-1.38071,0 -2.5,-1.11929 -2.5,-2.5z" fill="url(#color-19)"/><path d="M810.08258,323.96396c0,-1.38071 1.11929,-2.5 2.5,-2.5c1.38071,0 2.5,1.11929 2.5,2.5c0,1.38071 -1.11929,2.5 -2.5,2.5c-1.38071,0 -2.5,-1.11929 -2.5,-2.5z" fill="url(#color-20)"/><path d="M658.43093,176.81682c0,-1.38071 1.11929,-2.5 2.5,-2.5c1.38071,0 2.5,1.11929 2.5,2.5c0,1.38071 -1.11929,2.5 -2.5,2.5c-1.38071,0 -2.5,-1.11929 -2.5,-2.5z" fill="url(#color-21)"/><path d="M804.07658,588.22823c0,-1.38071 1.11929,-2.5 2.5,-2.5c1.38071,0 2.5,1.11929 2.5,2.5c0,1.38071 -1.11929,2.5 -2.5,2.5c-1.38071,0 -2.5,-1.11929 -2.5,-2.5z" fill="url(#color-22)"/><path d="M589.36186,564.2042c0,-1.38071 1.11929,-2.5 2.5,-2.5c1.38071,0 2.5,1.11929 2.5,2.5c0,1.38071 -1.11929,2.5 -2.5,2.5c-1.38071,0 -2.5,-1.11929 -2.5,-2.5z" fill="url(#color-23)"/><path d="M626.8994,442.58258c0,-1.38071 1.11929,-2.5 2.5,-2.5c1.38071,0 2.5,1.11929 2.5,2.5c0,1.38071 -1.11929,2.5 -2.5,2.5c-1.38071,0 -2.5,-1.11929 -2.5,-2.5z" fill="url(#color-24)"/><path d="M919.69219,631.77177c0,-1.38071 1.11929,-2.5 2.5,-2.5c1.38071,0 2.5,1.11929 2.5,2.5c0,1.38071 -1.11929,2.5 -2.5,2.5c-1.38071,0 -2.5,-1.11929 -2.5,-2.5z" fill="url(#color-25)"/><path d="M439.21171,567.20721c0,-1.38071 1.11929,-2.5 2.5,-2.5c1.38071,0 2.5,1.11929 2.5,2.5c0,1.38071 -1.11929,2.5 -2.5,2.5c-1.38071,0 -2.5,-1.11929 -2.5,-2.5z" fill="url(#color-26)"/><path d="M200.47297,651.29129c0,-1.38071 1.11929,-2.5 2.5,-2.5c1.38071,0 2.5,1.11929 2.5,2.5c0,1.38071 -1.11929,2.5 -2.5,2.5c-1.38071,0 -2.5,-1.11929 -2.5,-2.5z" fill="url(#color-27)"/><path d="M572.84535,705.34535c0,-1.38071 1.11929,-2.5 2.5,-2.5c1.38071,0 2.5,1.11929 2.5,2.5c0,1.38071 -1.11929,2.5 -2.5,2.5c-1.38071,0 -2.5,-1.11929 -2.5,-2.5z" fill="url(#color-28)"/><path d="M506.77928,837.47748c0,-1.38071 1.11929,-2.5 2.5,-2.5c1.38071,0 2.5,1.11929 2.5,2.5c0,1.38071 -1.11929,2.5 -2.5,2.5c-1.38071,0 -2.5,-1.11929 -2.5,-2.5z" fill="url(#color-29)"/><path d="M224.497,811.95195c0,-1.38071 1.11929,-2.5 2.5,-2.5c1.38071,0 2.5,1.11929 2.5,2.5c0,1.38071 -1.11929,2.5 -2.5,2.5c-1.38071,0 -2.5,-1.11929 -2.5,-2.5z" fill="url(#color-30)"/><path d="M222.9955,747.38739c0,-1.38071 1.11929,-2.5 2.5,-2.5c1.38071,0 2.5,1.11929 2.5,2.5c0,1.38071 -1.11929,2.5 -2.5,2.5c-1.38071,0 -2.5,-1.11929 -2.5,-2.5z" fill="url(#color-31)"/><path d="M33.80631,804.44444c0,-1.38071 1.11929,-2.5 2.5,-2.5c1.38071,0 2.5,1.11929 2.5,2.5c0,1.38071 -1.11929,2.5 -2.5,2.5c-1.38071,0 -2.5,-1.11929 -2.5,-2.5z" fill="url(#color-32)"/><path d="M-35.26276,717.35736c0,-1.38071 1.11929,-2.5 2.5,-2.5c1.38071,0 2.5,1.11929 2.5,2.5c0,1.38071 -1.11929,2.5 -2.5,2.5c-1.38071,0 -2.5,-1.11929 -2.5,-2.5z" fill="url(#color-33)"/><path d="M-59.28679,562.7027c0,-1.38071 1.11929,-2.5 2.5,-2.5c1.38071,0 2.5,1.11929 2.5,2.5c0,1.38071 -1.11929,2.5 -2.5,2.5c-1.38071,0 -2.5,-1.11929 -2.5,-2.5z" fill="url(#color-34)"/><path d="M-27.75526,311.95195c0,-1.38071 1.11929,-2.5 2.5,-2.5c1.38071,0 2.5,1.11929 2.5,2.5c0,1.38071 -1.11929,2.5 -2.5,2.5c-1.38071,0 -2.5,-1.11929 -2.5,-2.5z" fill="url(#color-35)"/><path d="M-92.31982,106.24625c0,-1.38071 1.11929,-2.5 2.5,-2.5c1.38071,0 2.5,1.11929 2.5,2.5c0,1.38071 -1.11929,2.5 -2.5,2.5c-1.38071,0 -2.5,-1.11929 -2.5,-2.5z" fill="url(#color-36)"/><path d="M-27.75526,-28.88889c0,-1.38071 1.11929,-2.5 2.5,-2.5c1.38071,0 2.5,1.11929 2.5,2.5c0,1.38071 -1.11929,2.5 -2.5,2.5c-1.38071,0 -2.5,-1.11929 -2.5,-2.5z" fill="url(#color-37)"/><path d="M81.85435,-99.45946c0,-1.38071 1.11929,-2.5 2.5,-2.5c1.38071,0 2.5,1.11929 2.5,2.5c0,1.38071 -1.11929,2.5 -2.5,2.5c-1.38071,0 -2.5,-1.11929 -2.5,-2.5z" fill="url(#color-38)"/><path d="M338.61111,-55.91592c0,-1.38071 1.11929,-2.5 2.5,-2.5c1.38071,0 2.5,1.11929 2.5,2.5c0,1.38071 -1.11929,2.5 -2.5,2.5c-1.38071,0 -2.5,-1.11929 -2.5,-2.5z" fill="url(#color-39)"/><path d="M138.91141,-33.39339c0,-1.38071 1.11929,-2.5 2.5,-2.5c1.38071,0 2.5,1.11929 2.5,2.5c0,1.38071 -1.11929,2.5 -2.5,2.5c-1.38071,0 -2.5,-1.11929 -2.5,-2.5z" fill="url(#color-40)"/><path d="M487.25976,-39.3994c0,-1.38071 1.11929,-2.5 2.5,-2.5c1.38071,0 2.5,1.11929 2.5,2.5c0,1.38071 -1.11929,2.5 -2.5,2.5c-1.38071,0 -2.5,-1.11929 -2.5,-2.5z" fill="url(#color-41)"/><path d="M458.73123,83.72372c0,-1.38071 1.11929,-2.5 2.5,-2.5c1.38071,0 2.5,1.11929 2.5,2.5c0,1.38071 -1.11929,2.5 -2.5,2.5c-1.38071,0 -2.5,-1.11929 -2.5,-2.5z" fill="url(#color-42)"/><path d="M838.61111,-0.36036c0,-1.38071 1.11929,-2.5 2.5,-2.5c1.38071,0 2.5,1.11929 2.5,2.5c0,1.38071 -1.11929,2.5 -2.5,2.5c-1.38071,0 -2.5,-1.11929 -2.5,-2.5z" fill="url(#color-43)"/><path d="M739.51201,91.23123c0,-1.38071 1.11929,-2.5 2.5,-2.5c1.38071,0 2.5,1.11929 2.5,2.5c0,1.38071 -1.11929,2.5 -2.5,2.5c-1.38071,0 -2.5,-1.11929 -2.5,-2.5z" fill="url(#color-44)"/><path d="M898.67117,275.91592c0,-1.38071 1.11929,-2.5 2.5,-2.5c1.38071,0 2.5,1.11929 2.5,2.5c0,1.38071 -1.11929,2.5 -2.5,2.5c-1.38071,0 -2.5,-1.11929 -2.5,-2.5z" fill="url(#color-45)"/><path d="M751.52402,272.91291c0,-1.38071 1.11929,-2.5 2.5,-2.5c1.38071,0 2.5,1.11929 2.5,2.5c0,1.38071 -1.11929,2.5 -2.5,2.5c-1.38071,0 -2.5,-1.11929 -2.5,-2.5z" fill="url(#color-46)"/><path d="M928.7012,442.58258c0,-1.38071 1.11929,-2.5 2.5,-2.5c1.38071,0 2.5,1.11929 2.5,2.5c0,1.38071 -1.11929,2.5 -2.5,2.5c-1.38071,0 -2.5,-1.11929 -2.5,-2.5z" fill="url(#color-47)"/><path d="M706.47898,601.74174c0,-1.38071 1.11929,-2.5 2.5,-2.5c1.38071,0 2.5,1.11929 2.5,2.5c0,1.38071 -1.11929,2.5 -2.5,2.5c-1.38071,0 -2.5,-1.11929 -2.5,-2.5z" fill="url(#color-48)"/><path d="M1101.37387,523.66366c0,-1.38071 1.11929,-2.5 2.5,-2.5c1.38071,0 2.5,1.11929 2.5,2.5c0,1.38071 -1.11929,2.5 -2.5,2.5c-1.38071,0 -2.5,-1.11929 -2.5,-2.5z" fill="url(#color-49)"/><path d="M1138.91141,248.88889c0,-1.38071 1.11929,-2.5 2.5,-2.5c1.38071,0 2.5,1.11929 2.5,2.5c0,1.38071 -1.11929,2.5 -2.5,2.5c-1.38071,0 -2.5,-1.11929 -2.5,-2.5z" fill="url(#color-50)"/><path d="M1023.2958,227.86787c0,-1.38071 1.11929,-2.5 2.5,-2.5c1.38071,0 2.5,1.11929 2.5,2.5c0,1.38071 -1.11929,2.5 -2.5,2.5c-1.38071,0 -2.5,-1.11929 -2.5,-2.5z" fill="url(#color-51)"/><path d="M1146.41892,56.6967c0,-1.38071 1.11929,-2.5 2.5,-2.5c1.38071,0 2.5,1.11929 2.5,2.5c0,1.38071 -1.11929,2.5 -2.5,2.5c-1.38071,0 -2.5,-1.11929 -2.5,-2.5z" fill="url(#color-52)"/><path d="M1033.80631,-117.47748c0,-1.38071 1.11929,-2.5 2.5,-2.5c1.38071,0 2.5,1.11929 2.5,2.5c0,1.38071 -1.11929,2.5 -2.5,2.5c-1.38071,0 -2.5,-1.11929 -2.5,-2.5z" fill="url(#color-53)"/><path d="M847.62012,-78.43844c0,-1.38071 1.11929,-2.5 2.5,-2.5c1.38071,0 2.5,1.11929 2.5,2.5c0,1.38071 -1.11929,2.5 -2.5,2.5c-1.38071,0 -2.5,-1.11929 -2.5,-2.5z" fill="url(#color-54)"/><path d="M706.47898,-99.45946c0,-1.38071 1.11929,-2.5 2.5,-2.5c1.38071,0 2.5,1.11929 2.5,2.5c0,1.38071 -1.11929,2.5 -2.5,2.5c-1.38071,0 -2.5,-1.11929 -2.5,-2.5z" fill="url(#color-55)"/><path d="M539.81231,-6.36637c0,-1.38071 1.11929,-2.5 2.5,-2.5c1.38071,0 2.5,1.11929 2.5,2.5c0,1.38071 -1.11929,2.5 -2.5,2.5c-1.38071,0 -2.5,-1.11929 -2.5,-2.5z" fill="url(#color-56)"/><path d="M472.24474,-99.45946c0,-1.38071 1.11929,-2.5 2.5,-2.5c1.38071,0 2.5,1.11929 2.5,2.5c0,1.38071 -1.11929,2.5 -2.5,2.5c-1.38071,0 -2.5,-1.11929 -2.5,-2.5z" fill="url(#color-57)"/><path d="M183.95646,-70.93093c0,-1.38071 1.11929,-2.5 2.5,-2.5c1.38071,0 2.5,1.11929 2.5,2.5c0,1.38071 -1.11929,2.5 -2.5,2.5c-1.38071,0 -2.5,-1.11929 -2.5,-2.5z" fill="url(#color-58)"/><path d="M-39.76727,-127.98799c0,-1.38071 1.11929,-2.5 2.5,-2.5c1.38071,0 2.5,1.11929 2.5,2.5c0,1.38071 -1.11929,2.5 -2.5,2.5c-1.38071,0 -2.5,-1.11929 -2.5,-2.5z" fill="url(#color-59)"/><path d="M-131.35886,67.20721c0,-1.38071 1.11929,-2.5 2.5,-2.5c1.38071,0 2.5,1.11929 2.5,2.5c0,1.38071 -1.11929,2.5 -2.5,2.5c-1.38071,0 -2.5,-1.11929 -2.5,-2.5z" fill="url(#color-60)"/><path d="M-204.93243,268.40841c0,-1.38071 1.11929,-2.5 2.5,-2.5c1.38071,0 2.5,1.11929 2.5,2.5c0,1.38071 -1.11929,2.5 -2.5,2.5c-1.38071,0 -2.5,-1.11929 -2.5,-2.5z" fill="url(#color-61)"/><path d="M-83.31081,445.58559c0,-1.38071 1.11929,-2.5 2.5,-2.5c1.38071,0 2.5,1.11929 2.5,2.5c0,1.38071 -1.11929,2.5 -2.5,2.5c-1.38071,0 -2.5,-1.11929 -2.5,-2.5z" fill="url(#color-62)"/><path d="M-185.41291,469.60961c0,-1.38071 1.11929,-2.5 2.5,-2.5c1.38071,0 2.5,1.11929 2.5,2.5c0,1.38071 -1.11929,2.5 -2.5,2.5c-1.38071,0 -2.5,-1.11929 -2.5,-2.5z" fill="url(#color-63)"/><path d="M-179.40691,676.81682c0,-1.38071 1.11929,-2.5 2.5,-2.5c1.38071,0 2.5,1.11929 2.5,2.5c0,1.38071 -1.11929,2.5 -2.5,2.5c-1.38071,0 -2.5,-1.11929 -2.5,-2.5z" fill="url(#color-64)"/><path d="M-212.43994,786.42643c0,-1.38071 1.11929,-2.5 2.5,-2.5c1.38071,0 2.5,1.11929 2.5,2.5c0,1.38071 -1.11929,2.5 -2.5,2.5c-1.38071,0 -2.5,-1.11929 -2.5,-2.5z" fill="url(#color-65)"/><path d="M305.57808,856.997c0,-1.38071 1.11929,-2.5 2.5,-2.5c1.38071,0 2.5,1.11929 2.5,2.5c0,1.38071 -1.11929,2.5 -2.5,2.5c-1.38071,0 -2.5,-1.11929 -2.5,-2.5z" fill="url(#color-66)"/><path d="M897.16967,753.39339c0,-1.38071 1.11929,-2.5 2.5,-2.5c1.38071,0 2.5,1.11929 2.5,2.5c0,1.38071 -1.11929,2.5 -2.5,2.5c-1.38071,0 -2.5,-1.11929 -2.5,-2.5z" fill="url(#color-67)"/><path d="" fill="#ffffff"/><path d="M1122.39489,798.43844c0,-1.38071 1.11929,-2.5 2.5,-2.5c1.38071,0 2.5,1.11929 2.5,2.5c0,1.38071 -1.11929,2.5 -2.5,2.5c-1.38071,0 -2.5,-1.11929 -2.5,-2.5z" fill="url(#color-68)"/><path d="M1129.9024,624.26426c0,-1.38071 1.11929,-2.5 2.5,-2.5c1.38071,0 2.5,1.11929 2.5,2.5c0,1.38071 -1.11929,2.5 -2.5,2.5c-1.38071,0 -2.5,-1.11929 -2.5,-2.5z" fill="url(#color-69)"/><path d="M640.41291,846.48649c0,-1.38071 1.11929,-2.5 2.5,-2.5c1.38071,0 2.5,1.11929 2.5,2.5c0,1.38071 -1.11929,2.5 -2.5,2.5c-1.38071,0 -2.5,-1.11929 -2.5,-2.5z" fill="url(#color-70)"/><path d="M963.23574,840.48048c0,-1.38071 1.11929,-2.5 2.5,-2.5c1.38071,0 2.5,1.11929 2.5,2.5c0,1.38071 -1.11929,2.5 -2.5,2.5c-1.38071,0 -2.5,-1.11929 -2.5,-2.5z" fill="url(#color-71)"/><path d="M733.50601,739.87988c0,-1.38071 1.11929,-2.5 2.5,-2.5c1.38071,0 2.5,1.11929 2.5,2.5c0,1.38071 -1.11929,2.5 -2.5,2.5c-1.38071,0 -2.5,-1.11929 -2.5,-2.5z" fill="url(#color-72)"/><path d="M347.62012,699.33934c0,-1.38071 1.11929,-2.5 2.5,-2.5c1.38071,0 2.5,1.11929 2.5,2.5c0,1.38071 -1.11929,2.5 -2.5,2.5c-1.38071,0 -2.5,-1.11929 -2.5,-2.5z" fill="url(#color-73)"/><path d="M241.01351,474.11411c0,-1.38071 1.11929,-2.5 2.5,-2.5c1.38071,0 2.5,1.11929 2.5,2.5c0,1.38071 -1.11929,2.5 -2.5,2.5c-1.38071,0 -2.5,-1.11929 -2.5,-2.5z" fill="url(#color-74)"/><path d="M-188.41592,-82.94294c0,-1.38071 1.11929,-2.5 2.5,-2.5c1.38071,0 2.5,1.11929 2.5,2.5c0,1.38071 -1.11929,2.5 -2.5,2.5c-1.38071,0 -2.5,-1.11929 -2.5,-2.5z" fill="url(#color-75)"/><path d="M563.83634,-87.44745c0,-1.38071 1.11929,-2.5 2.5,-2.5c1.38071,0 2.5,1.11929 2.5,2.5c0,1.38071 -1.11929,2.5 -2.5,2.5c-1.38071,0 -2.5,-1.11929 -2.5,-2.5z" fill="url(#color-76)"/><path d="M209.48198,-118.97898c0,-1.38071 1.11929,-2.5 2.5,-2.5c1.38071,0 2.5,1.11929 2.5,2.5c0,1.38071 -1.11929,2.5 -2.5,2.5c-1.38071,0 -2.5,-1.11929 -2.5,-2.5z" fill="url(#color-77)"/><path d="M1149.42192,-126.48649c0,-1.38071 1.11929,-2.5 2.5,-2.5c1.38071,0 2.5,1.11929 2.5,2.5c0,1.38071 -1.11929,2.5 -2.5,2.5c-1.38071,0 -2.5,-1.11929 -2.5,-2.5z" fill="url(#color-78)"/><path d="M1032.3048,83.72372c0,-1.38071 1.11929,-2.5 2.5,-2.5c1.38071,0 2.5,1.11929 2.5,2.5c0,1.38071 -1.11929,2.5 -2.5,2.5c-1.38071,0 -2.5,-1.11929 -2.5,-2.5z" fill="url(#color-79)"/><path d="M-62.28979,838.97898c0,-1.38071 1.11929,-2.5 2.5,-2.5c1.38071,0 2.5,1.11929 2.5,2.5c0,1.38071 -1.11929,2.5 -2.5,2.5c-1.38071,0 -2.5,-1.11929 -2.5,-2.5z" fill="url(#color-80)"/></g></g></svg>