<svg version="1.1" xmlns="http://www.w3.org/2000/svg" xmlns:xlink="http://www.w3.org/1999/xlink" width="16.63131" height="43.30909" viewBox="0,0,16.63131,43.30909"><defs><linearGradient x1="473.03958" y1="341.32124" x2="487.05962" y2="341.32124" gradientUnits="userSpaceOnUse" id="color-1"><stop offset="0" stop-color="#464646"/><stop offset="1" stop-color="#ffffff"/></linearGradient></defs><g transform="translate(-471.68706,-334.95281)"><g data-paper-data="{&quot;isPaintingLayer&quot;:true}" fill-rule="nonzero" stroke-linejoin="miter" stroke-miterlimit="10" stroke-dasharray="" stroke-dashoffset="0" style="mix-blend-mode: normal"><path d="M473,377.2619l7,-12.08535l7,11.96449" fill="none" stroke="#ffffff" stroke-width="2" stroke-linecap="round"/><path d="M473.95239,359.13389l6.28571,-7.41235v13.53559" fill="none" stroke="#ffffff" stroke-width="2" stroke-linecap="round"/><path d="M486.07143,358.89218l-5.85714,-7.13036" fill="#ffffff" stroke="#ffffff" stroke-width="2" stroke-linecap="round"/><path d="M485.42857,347.20967c0,2.46958 -2.43045,4.47158 -5.42857,4.47158c-2.99812,0 -5.42857,-2.00199 -5.42857,-4.47158c0,-2.46958 2.43045,-4.47158 5.42857,-4.47158c2.99812,0 5.42857,2.00199 5.42857,4.47158z" fill="#ffffff" stroke="#ffffff" stroke-width="2" stroke-linecap="butt"/><path d="M478.55,346.98333c-0.25,0 -0.25,-0.25 -0.25,-0.25v-0.1c0,-2.14782 -0.10436,-2.25028 -1.12639,-0.1882c0,0 -0.1118,0.22361 -0.33541,0.1118c-0.22361,-0.1118 -0.1118,-0.33541 -0.1118,-0.33541c1.17579,-2.33334 2.07361,-2.22905 2.07361,0.4118v0.1c0,0 0,0.25 -0.25,0.25z" fill="#000000" stroke="none" stroke-width="0.5" stroke-linecap="butt"/><path d="M483.57361,347.04514c-0.1118,0.22361 -0.33541,0.1118 -0.33541,0.1118l-0.32537,-0.24455c-0.62879,-2.06253 -1.97626,-3.6558 -1.41623,-0.32016c0,0 0.0411,0.2466 -0.2055,0.2877c-0.2466,0.0411 -0.2877,-0.2055 -0.2877,-0.2055c-0.62248,-3.76071 1.46053,-2.53307 2.38377,0.07984l0.07463,-0.04455c0,0 0.22361,0.1118 0.1118,0.33541z" fill="#000000" stroke="none" stroke-width="0.5" stroke-linecap="butt"/><path d="M481.6,349.63333c0,0.25 -0.25,0.25 -0.25,0.25h-0.1c-1.10446,0 -2.06394,-0.12621 -3.1411,-0.3034c0,0 -0.2466,-0.0411 -0.2055,-0.2877c0.0411,-0.2466 0.2877,-0.2055 0.2877,-0.2055c1.05277,0.17755 1.97865,0.2966 3.0589,0.2966h0.1c0,0 0.25,0 0.25,0.25z" fill="#000000" stroke="none" stroke-width="0.5" stroke-linecap="butt"/><path d="M476.83849,341.6705c-0.09634,-0.28902 -0.03614,-0.49978 0.06932,-0.64816c0.01994,-0.17262 0.04366,-0.34221 0.07046,-0.50982c0.00077,-0.01272 0.00156,-0.0255 0.00237,-0.03833c-1.08808,0.28497 -2.75716,0.56399 -3.42456,1.20068c-0.18999,0.18125 -0.46401,0.62599 -0.46727,0.89743c3.21633,0.31487 6.10619,0.42874 9.35826,0.21422c1.82019,-0.12007 3.96688,-0.06458 4.56272,-2.00114c-1.32252,-0.36274 -2.6277,-0.69001 -3.93469,-0.87147c-0.0306,0.6203 -0.19672,1.17763 -0.53393,1.58098c-0.62554,0.74823 -2.25045,0.48844 -3.09115,0.48844c-0.46762,-0.0009 -0.93616,0.02648 -1.4007,0.0812c-0.06213,0.02849 -0.13384,0.04967 -0.2166,0.06065l-0.04553,0.01966c0,0 -0.71151,0.23717 -0.94868,-0.47434zM479.45,340.48333c0.57166,0 1.40606,0.52 1.79431,0.22387c0.01125,-0.05215 0.02261,-0.0837 0.02261,-0.0837l0.01433,0.05168c0.00411,-0.00403 0.00816,-0.00818 0.01214,-0.01244c-0.02288,-0.22511 -0.04476,-0.54084 -0.07655,-0.89677c-0.8879,-0.0127 -1.78077,0.06515 -2.68452,0.2677c-0.01159,0.08374 -0.0224,0.16611 -0.03253,0.24671c-0.00606,0.08242 -0.01139,0.16201 -0.01605,0.23816c0.32163,-0.02285 0.6441,-0.03466 0.96625,-0.03521zM480.30404,336.79429c-0.12469,-0.07414 -0.24102,-0.11632 -0.34957,-0.13059c-0.53501,0.32212 -0.87607,1.0123 -1.10115,1.78439c0.7146,-0.11565 1.43487,-0.19257 2.15292,-0.22339c-0.13813,-0.65449 -0.35246,-1.22247 -0.7022,-1.43042zM488.3032,340.02575c0.2276,3.14959 -2.1374,4.08052 -4.96633,4.26362c-2.91638,0.18876 -5.62369,0.15023 -8.44404,-0.05702c-0.14161,0.06879 -0.26674,0.08362 -0.26674,0.08362l-0.6798,0.058c-0.29236,-0.03815 -0.58473,-0.0763 -0.87709,-0.11444c-0.16304,-0.06608 -0.31074,-0.14188 -0.44358,-0.22591c-0.00318,-0.00032 -0.00635,-0.00064 -0.00953,-0.00096c0,0 -0.65547,-0.06625 -0.67566,-0.6889c-0.64956,-1.10099 -0.01246,-2.64944 1.47968,-3.28938c1.1783,-0.50534 2.45035,-0.94344 3.76413,-1.26575c0.27128,-1.47172 0.83288,-2.99272 1.94303,-3.45543c1.55248,-1.18173 3.19683,0.79663 3.75479,2.92155c1.92788,0.15126 3.78804,0.69204 5.42113,1.77101z" fill="#000000" stroke="none" stroke-width="0.5" stroke-linecap="butt"/><path d="M482.62832,341.13557l0.11657,-0.54334c-0.0241,-0.20342 0.04432,-0.4822 0.01644,-0.74827c1.4267,0.16799 2.85518,0.54171 4.29829,0.93752c-0.59584,1.93656 -2.74964,1.91093 -4.56982,2.031c-3.25206,0.21452 -6.23389,0.08348 -9.45022,-0.23139c0.00326,-0.27144 0.27657,-0.72231 0.46656,-0.90356c0.66741,-0.63669 2.33825,-0.9318 3.42633,-1.21677c-0.02225,0.35264 0.06843,0.67836 0.06996,0.92737c0,0 0.00277,0.7347 0.75275,0.72924c0.74998,-0.00546 0.64725,-0.73773 0.64725,-0.73773c-0.00098,-0.1152 0.01967,-0.69403 0.07872,-1.37533c0.90819,-0.20472 1.87344,-0.29118 2.76561,-0.27841c0.03644,0.40798 0.07541,0.78237 0.10223,1.00879l-0.03882,-0.13629c0,0 -0.24795,0.73822 0.45768,0.99237c0.70563,0.25415 0.86048,-0.45519 0.86048,-0.45519z" data-paper-data="{&quot;noHover&quot;:false,&quot;origItem&quot;:[&quot;Path&quot;,{&quot;applyMatrix&quot;:true,&quot;segments&quot;:[[[963.4368,683.16656],[1.41125,0.5083],[-1.41125,-0.5083]],[962.53385,681.24701],[[962.60707,681.51105],[0,0],[-0.05366,-0.45283]],[[962.43369,679.53193],[0.07288,0.81597],[-1.78433,-0.02553]],[[957.03864,680.07319],[1.81638,-0.40945],[-0.11809,1.36261]],[[956.9048,682.7563],[-0.00197,-0.2304],[0,0]],[[955.41576,684.26719],[1.49996,-0.01092],[-1.49996,0.01092]],[[953.90488,682.77815],[0,0],[-0.00305,-0.49802]],[[953.96127,680.9484],[-0.04449,0.70529],[-2.17617,0.56993]],[[947.11214,683.34975],[1.33481,-1.27338],[-0.37999,0.3625]],[[946.17761,685.14462],[0.00653,-0.54289],[6.43266,0.62974]],[[964.89412,685.57306],[-6.50413,0.42905],[3.64037,-0.24014]],[[974.01955,681.57078],[-1.19168,3.87311],[-2.88624,-0.79163]],[[965.43497,679.73599],[2.85339,0.33597],[0.05576,0.53215]],[[965.58622,681.15805],[-0.04821,-0.40683],[0,0]],[965.35635,682.2636]],&quot;closed&quot;:true}]}" fill="url(#color-1)" stroke="none" stroke-width="0.5" stroke-linecap="butt"/><path d="M477.21678,342.16632c-0.27243,-0.19225 -0.31219,-0.55016 -0.31219,-0.55016c-0.1005,-0.91456 -0.21716,-1.86996 0.02152,-2.77898c0.17428,-0.66374 0.62418,-1.76644 0.96197,-2.35649c0.74297,-1.29781 2.84457,-2.23574 4.04193,-0.82285c0.59471,0.70177 1.41572,4.99377 0.83869,5.79943c-0.35194,0.49138 -1.62113,0.55147 -2.18603,0.61424c-0.81328,0.20366 -1.60856,0.30215 -2.43964,0.40603l-0.29303,0.00579c0,0 -0.42242,0 -0.63322,-0.31702zM478.33561,340.94138c0.66973,-0.08589 1.31623,-0.18012 1.98173,-0.34622c0.40221,-0.04469 1.02614,0.37269 1.21397,0.01424c0.60095,-1.14682 -1.05773,-6.54595 -2.58532,-2.6966c-0.17651,0.44479 -0.44633,0.85498 -0.57209,1.31669c-0.14742,0.54121 -0.10289,1.14252 -0.03829,1.71188z" fill="#000000" stroke="none" stroke-width="0.5" stroke-linecap="butt"/><path d="M478.32606,339.24405c0.12577,-0.46171 0.40467,-0.91806 0.58118,-1.36285c1.52759,-3.84935 3.25716,1.61968 2.65621,2.7665c-0.18783,0.35845 -0.83459,-0.0481 -1.2368,-0.00341c-0.6655,0.1661 -1.35113,0.25135 -2.02085,0.33724c-0.06461,-0.56936 -0.12716,-1.19627 0.02026,-1.73747z" data-paper-data="{&quot;noHover&quot;:false,&quot;origItem&quot;:[&quot;Path&quot;,{&quot;applyMatrix&quot;:true,&quot;segments&quot;:[[[478.33561,340.94138],[-0.06461,-0.56936],[0.66973,-0.08589]],[[480.31734,340.59516],[-0.6655,0.1661],[0.40221,-0.04469]],[[481.53131,340.6094],[-0.18783,0.35845],[0.60095,-1.14682]],[[478.94599,337.9128],[1.52759,-3.84935],[-0.17651,0.44479]],[[478.37389,339.22949],[0.12577,-0.46171],[-0.14742,0.54121]]],&quot;closed&quot;:true}]}" fill="#000000" stroke="none" stroke-width="0.5" stroke-linecap="butt"/></g></g></svg>