<svg version="1.1" xmlns="http://www.w3.org/2000/svg" xmlns:xlink="http://www.w3.org/1999/xlink" width="9.38903" height="13.66921" viewBox="0,0,9.38903,13.66921"><g transform="translate(-475.30549,-353.16539)"><g data-paper-data="{&quot;isPaintingLayer&quot;:true}" fill-rule="nonzero" stroke="none" stroke-linecap="butt" stroke-linejoin="miter" stroke-miterlimit="10" stroke-dasharray="" stroke-dashoffset="0" style="mix-blend-mode: normal"><path d="M475.97975,353.76725c1.43648,-1.13557 8.58676,-0.60895 8.6821,1.11482c0.22908,4.14184 -0.72382,3.94255 -3.59182,4.12066c0.49819,1.79354 0.42786,4.14235 0.35335,5.55918c-0.03782,0.71913 -0.34315,2.88526 -1.70682,2.10602c-0.22311,-0.12749 -0.33175,-0.3934 -0.51404,-0.57452c-0.24044,-0.23889 -0.32247,-0.28867 -0.30115,-0.68657c0.02443,-0.45592 -0.44707,-3.70669 -0.55114,-5.92437c-0.92128,0.22521 -1.93487,0.40158 -2.13947,0.04354l-0.61558,-1.07727c0,0 0,0 0,0c0,-0.01675 0.00033,-0.03341 0.00098,-0.05c0.01579,-1.3826 -0.87367,-3.6376 0.38358,-4.63149z" fill="#848484" stroke-width="0.5"/><text transform="translate(476.84519,357.1299) scale(0.07475,0.07475)" font-size="40" xml:space="preserve" fill="#000000" fill-rule="nonzero" stroke="none" stroke-width="1" stroke-linecap="butt" stroke-linejoin="miter" stroke-miterlimit="10" stroke-dasharray="" stroke-dashoffset="0" font-family="&quot;Century Gothic&quot;, Sans Serif" font-weight="normal" text-anchor="start" style="mix-blend-mode: normal"><tspan x="0" dy="0">BAN</tspan></text></g></g></svg>