<svg version="1.1" xmlns="http://www.w3.org/2000/svg" xmlns:xlink="http://www.w3.org/1999/xlink" width="21.8" height="38.52779" viewBox="0,0,21.8,38.52779"><g transform="translate(-471.7,-339.7341)"><g data-paper-data="{&quot;isPaintingLayer&quot;:true}" fill-rule="nonzero" stroke-linejoin="miter" stroke-miterlimit="10" stroke-dasharray="" stroke-dashoffset="0" style="mix-blend-mode: normal"><path d="M473,377.2619l7,-12.08535l7,11.96449" fill="none" stroke="#000000" stroke-width="2" stroke-linecap="round"/><path d="M473.78572,359.13389l6.28571,-7.41235v13.53559" fill="none" stroke="#000000" stroke-width="2" stroke-linecap="round"/><path d="M486.07143,358.89218l-5.85714,-7.13036" fill="none" stroke="#000000" stroke-width="2" stroke-linecap="round"/><path d="M485.42857,347.20967c0,2.46958 -2.43045,4.47158 -5.42857,4.47158c-2.99812,0 -5.42857,-2.00199 -5.42857,-4.47158c0,-2.46958 2.43045,-4.47158 5.42857,-4.47158c2.99812,0 5.42857,2.00199 5.42857,4.47158z" fill="#000000" stroke="#000000" stroke-width="2" stroke-linecap="butt"/><path d="M482.14345,350.17678c-0.17678,0.17678 -0.35355,0 -0.35355,0l-0.10426,-0.11482c-0.7215,-1.20664 -2.9513,-0.89705 -3.96896,-0.12862c0,0 -0.2,0.15 -0.35,-0.05c-0.15,-0.2 0.05,-0.35 0.05,-0.35c1.26583,-0.94377 3.80548,-1.211 4.69771,0.27137l0.02907,0.01851c0,0 0.17678,0.17678 0,0.35355z" fill="#ffffff" stroke="none" stroke-width="0.5" stroke-linecap="butt"/><path d="M479.48334,345.8c0,0.25 -0.25,0.25 -0.25,0.25h-0.4c-0.48201,-0.00209 -0.90121,-0.12477 -1.37443,-0.2034c0,0 -0.2466,-0.0411 -0.2055,-0.2877c0.0411,-0.2466 0.2877,-0.2055 0.2877,-0.2055c0.44333,0.0741 0.84283,0.19888 1.29224,0.1966h0.4c0,0 0.25,0 0.25,0.25z" fill="#ffffff" stroke="none" stroke-width="0.5" stroke-linecap="butt"/><path d="M483.35,345.86667c0,0.25 -0.25,0.25 -0.25,0.25h-0.26667c-0.5541,0 -1.09483,-0.04681 -1.6411,-0.13673c0,0 -0.2466,-0.0411 -0.2055,-0.2877c0.0411,-0.2466 0.2877,-0.2055 0.2877,-0.2055c0.51812,0.08753 1.03319,0.12993 1.5589,0.12993h0.26667c0,0 0.25,0 0.25,0.25z" fill="#ffffff" stroke="none" stroke-width="0.5" stroke-linecap="butt"/><path d="M488.08821,357.93569c0.40862,0.81723 -2.02318,3.79426 -2.87273,3.11962c-0.48054,-0.07288 -0.84881,-0.48775 -0.84881,-0.98865c0,-0.37485 0.20624,-0.70153 0.51145,-0.87274c0.89837,-1.1678 2.61481,-2.44881 3.2101,-1.25823z" fill="#946d48" stroke="none" stroke-width="0.5" stroke-linecap="butt"/><path d="M488.33891,355.08612c0.27883,-0.60786 0.53648,-1.01941 0.76912,-1.27249l0.04329,-0.12986l0.02278,-0.0358l0.00675,-0.04189l0.2,-0.46667l0.03517,-0.04627l0.01574,-0.05595l0.26667,-0.46666l0.00756,-0.0079l0.00319,-0.01047l0.4,-0.66666l0.00661,-0.00661l0.00288,-0.00889l0.28601,-0.45762l0.2226,-0.55649l0.25738,-0.77212l0.02278,-0.0358l0.00676,-0.0419l0.2,-0.46666l0.07259,-0.09552l0.04656,-0.11057l0.07883,-0.10511l0.01769,-0.07076l0.09325,-0.17484l0.07689,-0.18262l0.07098,-0.09464l0.00141,-0.00265l0.00073,-0.00021l0.12688,-0.16917l0.4,-0.325l0.22051,0.02756l0.17948,-0.10256l0.28,0.16l0.32,0.04l0.08205,0.18974l0.19295,0.11026l0.10726,0.42903l0.00595,0.00666l-0.001,0.01312l0.01279,0.05119v0.13333l-0.03899,0.15595l-0.01232,0.16028l-0.01535,0.04605v0.10439l-0.02416,0.09663l0.00474,0.09949l-0.13333,0.66667l-0.01768,0.03733l-0.00137,0.04128l-0.12876,0.45065l-0.1293,0.51717l-0.01845,0.0346l-0.00301,0.03909l-0.13333,0.4l-0.03864,0.06072l-0.01562,0.07027l-0.18685,0.37372l-0.16346,0.3814l-0.09284,0.32494l-0.05739,0.5165l-0.01914,0.05154l0.00144,0.05496l-0.12912,0.58105l-0.26188,1.44034l-0.26546,1.59275l-0.01093,0.02514l0.00072,0.0274l-0.26666,1.2l-0.00604,0.01209v0.01351l-0.06667,0.26666l-0.24254,0.45476l-0.0193,0.00543l-0.0012,0.00439l-0.47534,0.12964l-0.4743,0.1334l-0.00329,-0.00315l-0.01934,0.00528l-0.29249,-0.1755l-0.0167,-0.00703l-0.1923,-0.04807l-0.02476,-0.04332l-0.07524,-0.03168l-0.19453,-0.1459l-0.01548,-0.00774l-0.26743,-0.10697l-0.37212,-0.12404l-0.06072,-0.03864l-0.07027,-0.01562l-0.26551,-0.13275l-0.14643,-0.02441l-0.72374,0.14475l-0.67199,-0.75104l0.02119,-0.27535c-0.02151,-0.08159 -0.03297,-0.16728 -0.03297,-0.25563c0,-0.29194 0.1251,-0.55466 0.32463,-0.73748l0.01356,-0.03391l0.04741,-0.06565l0.02357,-0.07746l0.2,-0.33334l0.08705,-0.08705l0.06334,-0.10556l0.21641,-0.21641l0.10326,-0.13768l0.09301,-0.18601l0.06923,-0.08078l0.04433,-0.09671l0.26667,-0.33333l0.00818,-0.00623l0.00447,-0.00926l0.10419,-0.12502c0.01171,-0.02748 0.0238,-0.05482 0.03627,-0.08201z" fill="#949494" stroke="none" stroke-width="0.5" stroke-linecap="butt"/><path d="M478.79902,343.6c-0.77783,0.04603 -2.61735,1.19149 -3.61203,1.63858c-0.28592,0.72204 -0.49838,1.45432 -0.71229,2.07441c-0.19492,2.19797 -0.19434,4.62992 -1.41508,3.93236c-2.19456,-1.25403 -1.30812,-5.31531 0.83332,-8.06772c1.16942,-2.2511 2.91763,-4.36039 5.41343,-3.02929l0.10751,0.02389c2.49276,1.24638 5.89706,1.79964 7.29445,4.59443c0.5009,1.00181 2.15307,7.44705 -0.34167,6.76667c-1.5456,-0.42152 -0.86106,-2.4392 -1.26378,-3.72178c-0.27513,-0.87622 -1.1151,-2.11287 -2.15533,-3.2231c-0.14972,-0.0229 -0.28851,-0.07901 -0.40862,-0.16056c-1.11465,-0.02854 -2.37555,-0.90863 -3.73992,-0.82789z" fill="#ffffff" stroke="none" stroke-width="0.5" stroke-linecap="butt"/><path d="M471.7,348.33334c0,-0.55228 0.44772,-1 1,-1c0.55228,0 1,0.44772 1,1c0,0.55228 -0.44772,1 -1,1c-0.55228,0 -1,-0.44772 -1,-1z" fill="#ff0000" stroke="none" stroke-width="0.5" stroke-linecap="butt"/><path d="M474.1,345.26667c0,-0.55228 0.44772,-1 1,-1c0.55228,0 1,0.44772 1,1c0,0.55228 -0.44772,1 -1,1c-0.55228,0 -1,-0.44772 -1,-1z" fill="#ff0000" stroke="none" stroke-width="0.5" stroke-linecap="butt"/><path d="M474.1,342.13334c0,-0.55228 0.44772,-1 1,-1c0.55228,0 1,0.44772 1,1c0,0.55228 -0.44772,1 -1,1c-0.55228,0 -1,-0.44772 -1,-1z" fill="#ff0000" stroke="none" stroke-width="0.5" stroke-linecap="butt"/><path d="M477.9,342.8c0,-0.55228 0.44772,-1 1,-1c0.55228,0 1,0.44772 1,1c0,0.55228 -0.44772,1 -1,1c-0.55228,0 -1,-0.44772 -1,-1z" fill="#ff0000" stroke="none" stroke-width="0.5" stroke-linecap="butt"/><path d="M480.5,341.86667c0,-0.55228 0.44772,-1 1,-1c0.55228,0 1,0.44772 1,1c0,0.55228 -0.44772,1 -1,1c-0.55228,0 -1,-0.44772 -1,-1z" fill="#ff0000" stroke="none" stroke-width="0.5" stroke-linecap="butt"/><path d="M482.56667,344.66667c0,-0.55228 0.44772,-1 1,-1c0.55228,0 1,0.44772 1,1c0,0.55228 -0.44772,1 -1,1c-0.55228,0 -1,-0.44772 -1,-1z" fill="#ff0000" stroke="none" stroke-width="0.5" stroke-linecap="butt"/><path d="M485.63334,344.73334c0,-0.55228 0.44772,-1 1,-1c0.55228,0 1,0.44772 1,1c0,0.55228 -0.44772,1 -1,1c-0.55228,0 -1,-0.44772 -1,-1z" fill="#ff0000" stroke="none" stroke-width="0.5" stroke-linecap="butt"/><path d="M484.76667,348.66667c0,-0.55228 0.44772,-1 1,-1c0.55228,0 1,0.44772 1,1c0,0.55228 -0.44772,1 -1,1c-0.55228,0 -1,-0.44772 -1,-1z" fill="#ff0000" stroke="none" stroke-width="0.5" stroke-linecap="butt"/><path d="M477.18765,358.5429c0.39043,-0.31235 0.70278,0.07809 0.70278,0.07809l0.32345,0.42207c0.08889,0.17778 0.17778,0.35556 0.26667,0.53333c0,0 0.22361,0.44721 -0.22361,0.67082c-0.44721,0.22361 -0.67082,-0.22361 -0.67082,-0.22361c-0.08889,-0.17778 -0.17778,-0.35556 -0.26667,-0.53333l-0.20989,-0.24459c0,0 -0.31235,-0.39043 0.07809,-0.70278z" fill="#d6917e" stroke="none" stroke-width="0.5" stroke-linecap="butt"/><path d="M476.9,365.06667v-5.26666h2.93333v5.26666z" fill="#ff6161" stroke="none" stroke-width="0" stroke-linecap="butt"/><text transform="translate(479.23333,364.36591) rotate(-88.96669) scale(0.07015,0.07015)" font-size="40" xml:space="preserve" fill="#ffffff" fill-rule="nonzero" stroke="none" stroke-width="1" stroke-linecap="butt" stroke-linejoin="miter" stroke-miterlimit="10" stroke-dasharray="" stroke-dashoffset="0" font-family="&quot;Century Gothic&quot;, Sans Serif" font-weight="normal" text-anchor="start" style="mix-blend-mode: normal"><tspan x="0" dy="0">C4</tspan></text></g></g></svg>