<svg version="1.1" xmlns="http://www.w3.org/2000/svg" xmlns:xlink="http://www.w3.org/1999/xlink" width="20.66702" height="37.04591" viewBox="0,0,20.66702,37.04591"><g transform="translate(-471.93548,-341.21599)"><g data-paper-data="{&quot;isPaintingLayer&quot;:true}" fill-rule="nonzero" stroke-linejoin="miter" stroke-miterlimit="10" stroke-dasharray="" stroke-dashoffset="0" style="mix-blend-mode: normal"><path d="M485.09783,360.55729c0,-0.27526 0.1483,-0.5159 0.36935,-0.64636l0.00565,-0.00989l0.02147,-0.00537c0.03107,-0.01664 0.06343,-0.03114 0.09692,-0.04333l0.00444,-0.00592l0.0419,-0.03404l0.02777,-0.04629l0.15355,-0.15355l0.4871,-0.56828l0.2271,-0.3028l0.20051,-0.32081l0.01703,-0.01642l0.00867,-0.02201l0.19534,-0.27347l0.15508,-0.2714l0.04965,-0.05181l0.03209,-0.06418l0.21152,-0.24677l0.18057,-0.32502l0.00317,-0.0034l0.00126,-0.00448l0.17391,-0.30435l0.03279,-0.03422l0.01839,-0.04368l0.05741,-0.07654l0.00499,-0.01498l0.09252,-0.14538l0.08866,-0.14778l0.01477,-0.01477l0.01157,-0.01817l0.00826,-0.00165l0.02105,-0.02105l0.18585,-0.21683l0.02957,-0.00164l0.01469,-0.02571l0.375,-0.09375h0.0815l0.00701,-0.00467l0.02103,0.00467h0.0209l0.16718,0.0418l0.12937,0.02874l0.13447,0.0269l0.28374,0.04053l0.02724,0.0111l0.0294,-0.00077l0.3913,0.08695l0.00907,0.00454h0.01013l0.69565,0.17391l0.02594,0.01384l0.02932,0.00225l0.24541,0.0818l0.23942,0.0684l0.25363,0.03623l0.01974,0.00804l0.02128,-0.00101l0.21739,0.04348l0.04283,0.02029l0.04726,0.00364l0.11923,0.03974l0.18111,0.04528l0.01529,-0.00085l0.00374,0.00561l0.03585,0.00896l0.07882,0.13795l0.0225,0.01432l0.00771,0.03855l0.05392,0.09437l0.01856,0.00802l0.00367,0.0294l0.19448,0.29172l-0.00802,0.03607l0.00335,0.00585l-0.0076,0.0133l-0.07158,0.32211l-0.02159,0.04319l0.00104,0.00835l-0.01358,0.01672l-0.00934,0.01869l-0.11215,0.13085l-0.10867,0.13374l-0.01672,0.01254l-0.01402,0.01635l-0.00841,0.00047l-0.11939,0.08954l-0.46159,0.38466l-0.23872,0.27283l-0.88977,1.2711l-0.00952,0.00828l-0.0049,0.01163l-0.26086,0.34783l-0.01939,0.01575l-0.01117,0.02234l-0.25748,0.30039l-0.20175,0.2421l-0.10641,0.14189l-0.07541,0.11311l-0.01577,0.01434l-0.00827,0.01964l-0.08986,0.11981l-0.05671,0.11343l-0.07846,0.09154l-0.00467,0.00779l-0.00661,0.01983l-0.02734,0.04296l0.00155,0.0057l-0.00617,0.01029l-0.00873,0.03929l-0.04348,0.08696l-0.07846,0.09154l-0.00467,0.00779l-0.00661,0.01983l-0.03828,0.06015l0.0028,0.0407l-0.09568,0.10525l-0.07637,0.12l-0.04,0.008l-0.04796,0.05276l-0.0407,0.02714l-0.12998,0.15163l-0.08721,0.00484l-0.05363,0.06895l-0.38449,0.03978l-0.30435,-0.04348l-0.0083,-0.00338l-0.00894,0.00072l-0.26087,-0.04348l-0.0829,-0.03604l-0.08925,-0.0144l-0.22132,-0.09485l-0.17176,-0.02862l-0.02803,-0.01219h-0.03057l-0.66659,-0.16665l-0.23133,-0.03856l-0.10274,-0.04467l-0.10937,-0.0243l-0.12624,-0.06312l-0.06866,-0.02289l-0.02817,-0.00705l-0.16823,-0.03738l-0.01869,-0.00935l-0.02089,-0.00522l-0.00418,-0.00731l-0.13015,-0.06507l-0.04649,-0.03985l-0.03736,-0.00207l-0.09675,-0.11288l-0.11288,-0.09675l-0.00207,-0.03736l-0.03985,-0.04649l-0.04348,-0.08695l-0.08385,-0.37734l0.12813,-0.19219l-0.00079,-0.01434l0.01863,-0.01243l0.17427,-0.26139c-0.00737,-0.04219 -0.01121,-0.0856 -0.01121,-0.1299z" fill="#26140c" stroke="none" stroke-width="0.5" stroke-linecap="butt"/><path d="M488.66848,356.04461l0.14679,0.08808l0.3132,0.1044l0.03379,0.0215l0.03939,0.00724l0.46739,0.21245l0.51072,0.2128l0.00725,0.00539l0.0089,0.00156l0.38674,0.17188l0.24452,0.10479l0.11561,0.0289l0.04552,0.02428l0.05112,0.00697l0.21739,0.08696l0.31336,0.22632l0.01262,0.09043l0.0663,0.0442l-0.01712,0.30822l0.04266,0.30573l-0.0624,0.04955l-0.00506,0.09117l-0.21682,0.18585l-0.0901,0.0901l-0.04027,0.0604l-0.00064,0.01148l-0.11413,0.09783l-0.06133,0.12267l-0.03084,0.03598l-0.01594,0.04463l-0.07706,0.11559l-0.12125,0.20209l-0.00496,0.00496l-0.00216,0.00667l-0.21739,0.34783l-0.02339,0.02255l-0.01261,0.02995l-0.26087,0.34783l-0.0419,0.03404l-0.02777,0.04629l-1.28669,1.28669l-0.2879,0.32903l-0.05519,0.03833l-0.04072,0.05345l-0.21739,0.17391l-0.07205,0.03302l-0.02147,0.03758l-0.13313,0.03328l-0.12474,0.05717l-0.04024,-0.01593l-0.07689,0.01922h-0.03802l-0.00701,0.00467l-0.02103,-0.00467h-0.0209l-0.16718,-0.0418l-0.16823,-0.03738l-0.01869,-0.00935l-0.0209,-0.00522l-0.00418,-0.00731l-0.61667,-0.30834l-0.27097,-0.10161l-0.30638,-0.0766l-0.02595,-0.01384l-0.02932,-0.00226l-0.36398,-0.12133l-0.31988,-0.07997l-0.04552,-0.02428l-0.05112,-0.00697l-0.19693,-0.07877l-0.10953,-0.03651l-0.0667,-0.04244l-0.03154,0.00175l-0.02527,-0.0379l-0.2026,-0.12893l-0.04999,-0.24996l-0.1414,-0.2121l0.05209,-0.23443l-0.00893,-0.04467l0.02354,-0.02106l0.00439,-0.01974l-0.00214,-0.00785l0.00617,-0.01029l0.00873,-0.03929l0.04348,-0.08696l0.07846,-0.09154l0.06203,-0.10338l0.09275,-0.09275l0.08596,-0.11462l0.07541,-0.11311l0.01577,-0.01433l0.00827,-0.01964l0.11794,-0.15726l0.14553,-0.21829l0.20265,-0.36477l0.02704,-0.0289l0.01416,-0.03696l0.30435,-0.43478l0.00953,-0.00827l0.0049,-0.01163l0.26087,-0.34783l0.01528,-0.01241l0.00856,-0.01773l0.21739,-0.26087l0.06149,-0.04493l0.04616,-0.06058l0.12647,-0.10117l0.10932,-0.16398l0.01577,-0.01433l0.00827,-0.01964l0.08986,-0.11981l0.00597,-0.01194c0.05532,-0.11669 0.13986,-0.21682 0.24419,-0.29094l0.01464,-0.01708l0.01143,-0.00064c0.04641,-0.03013 0.09636,-0.05526 0.14909,-0.07464l0.08075,-0.323l0.02571,-0.01469l0.00164,-0.02957l0.29348,-0.25156l0.08696,-0.04348l0.14444,-0.0321l0.04274,-0.03824l0.09608,0.00739l0.09407,-0.02091l0.04772,0.03181l0.14753,0.01135l0.13043,0.04348l0.06968,0.04434zM487.72734,360.46287l0.06334,-0.07239l-0.0925,0.05781z" fill="#bcbcbc" stroke="none" stroke-width="0.5" stroke-linecap="butt"/><path d="M473,377.2619l7,-12.08535l7,11.96449" fill="none" stroke="#000000" stroke-width="2" stroke-linecap="round"/><path d="M473.78572,359.13389l6.28571,-7.41235v13.53559" fill="none" stroke="#000000" stroke-width="2" stroke-linecap="round"/><path d="M480.21429,351.76182l5.85714,7.13036" fill="none" stroke="#000000" stroke-width="2" stroke-linecap="round"/><path d="M485.42857,347.20967c0,2.46958 -2.43045,4.47158 -5.42857,4.47158c-2.99812,0 -5.42857,-2.00199 -5.42857,-4.47158c0,-2.46958 2.43045,-4.47158 5.42857,-4.47158c2.99812,0 5.42857,2.00199 5.42857,4.47158z" fill="#000000" stroke="#000000" stroke-width="2" stroke-linecap="butt"/><path d="M476.17693,348.29507l0.03935,0.1115l-1.11689,0.39419c-0.08269,0.03138 -0.17237,0.04856 -0.26606,0.04856c-0.35257,0 -0.64832,-0.24328 -0.72854,-0.57114l-0.00543,0.00125c-0.49173,0.46658 -1.1004,0.78181 -1.8314,0.36628c-0.51008,-0.28995 -0.37748,-2.14724 0.02242,-2.56464c0.03922,-0.04094 0.07946,-0.08069 0.12062,-0.11937l-0.01853,-0.01744l0.23515,-0.24985c-0.0072,-0.04173 -0.01095,-0.08464 -0.01095,-0.12843c0,-0.20711 0.08395,-0.39461 0.21967,-0.53033l0.6,-0.6l0.01604,0.01604l0.02706,-0.0559c1.13023,-0.82513 2.0963,-1.75367 3.33165,-2.4235c0,0 0.44757,-0.241 0.80417,0.04228c0.1834,-0.06199 0.35763,-0.10624 0.53609,-0.13719l-0.02917,-0.10697l1.43057,-0.39016c0.06779,-0.02014 0.13959,-0.03095 0.21391,-0.03095c0.26308,0 0.49452,0.13545 0.62839,0.34041l0.99279,0.20901l-0.00335,0.01593c0.71576,0.10945 1.56077,0.18327 2.21677,0.43806c0.24729,0.04469 0.50564,0.09323 0.77977,0.1446l0.00857,0.00607l0.00088,-0.00411l0.25469,0.05458c0.004,0.00031 0.008,0.00061 0.012,0.00092l0.00355,0.00241l0.02862,0.00613l0.00064,-0.00382l0.78784,0.13131c0.36151,0.0537 0.63886,0.36537 0.63886,0.74182c0,0.00554 -0.00006,0.01108 -0.00018,0.01659l0.5226,0.21775c0.24726,0.09644 0.43077,0.32028 0.46984,0.59085l0.18841,0.05123c0,0 0.5936,0.16189 0.55887,0.73006c0.2345,0.12679 0.39379,0.37488 0.39379,0.66018c0,0.34853 -0.23774,0.64154 -0.5599,0.7257l-0.48834,0.13953c-0.08951,0.23672 -0.29537,0.41629 -0.5478,0.46896l-0.85198,0.19661l-0.0029,-0.01258l-0.0243,0.01833c-0.08678,0.01338 -0.1704,0.02614 -0.25123,0.03824c-0.23839,0.21675 -0.65481,0.19264 -1.27155,0.35965l-0.04878,-0.01193l0.00285,0.01995l-0.92056,0.13151c-0.03871,0.00616 -0.0784,0.00936 -0.11884,0.00936c-0.09744,0 -0.19055,-0.01858 -0.27596,-0.0524l-0.2602,0.04108c-0.04238,0.00744 -0.08599,0.01132 -0.13051,0.01132c-0.26256,0 -0.4936,-0.13491 -0.62759,-0.3392c-0.25705,-0.03223 -0.47364,-0.19455 -0.58178,-0.41897c-0.34348,0.0121 -0.68795,0.01169 -1.03149,0.00346l-0.59119,0.39413l-0.04901,-0.07352c-0.05448,0.02943 -0.10752,0.05758 -0.15933,0.08452c-0.29248,0.26601 -0.60183,0.5109 -0.93327,0.72437l-0.05951,0.00223l0.01019,0.02242l-0.71868,0.32667c-0.09833,0.04735 -0.20857,0.07389 -0.32501,0.07389c-0.14685,0 -0.28385,-0.04221 -0.39951,-0.11515l-0.01337,0.00446c-0.07926,0.0285 -0.16471,0.04402 -0.25378,0.04402c-0.21419,0 -0.40742,-0.08979 -0.54408,-0.23379c-0.01515,0.00437 -0.03037,0.00866 -0.04565,0.01286z" fill="#3a3a3a" stroke="none" stroke-width="0.5" stroke-linecap="butt"/><path d="M478.38749,341.58445c0.13058,-0.22057 0.37094,-0.36847 0.64584,-0.36847c0.02214,0 0.04407,0.00096 0.06572,0.00284l0.85847,0.06604l-0.00222,0.02888l0.06484,-0.02141c0.69679,0.17259 1.36405,0.29344 2.00645,0.41624l0.03056,-0.14261l0.91918,0.19697c0.16478,0.03181 0.31034,0.11755 0.41759,0.23813c0.66102,0.16743 1.29672,0.38331 1.91309,0.71641l0.10729,-0.23245l0.85132,0.39292c0.26545,0.11549 0.45105,0.3801 0.45105,0.68805c0,0.03905 -0.00298,0.0774 -0.00874,0.11483l0.49005,0.17152c0.30102,0.0975 0.51868,0.38016 0.51868,0.71365c0,0.00451 -0.00004,0.00901 -0.00012,0.0135l0.59213,0.31884c0.18194,0.09339 0.32073,0.25896 0.37856,0.45891l0.45264,0.1646c0.29658,0.10005 0.51013,0.38049 0.51013,0.71082c0,0.41421 -0.33579,0.75 -0.75,0.75c-0.03172,0 -0.06297,-0.00197 -0.09365,-0.00579l-0.0873,-0.0097c-0.0492,0.01016 -0.10017,0.01549 -0.15238,0.01549h-0.93333v-0.0122l-0.02878,0.01165c-0.9224,-0.07247 -1.76142,-0.15957 -2.56022,-0.33675c-0.02553,0.00263 -0.05144,0.00397 -0.07766,0.00397c-0.05945,0 -0.11728,-0.00692 -0.17274,-0.01999l-0.91143,-0.19531c-0.08064,-0.01532 -0.16885,-0.03014 -0.2637,-0.04466l-0.00928,0.0433l-0.55938,-0.11987c-1.39315,-0.17099 -3.51122,-0.35834 -4.75292,-0.95397c-1.35896,-0.25583 -2.67107,-0.71433 -4.06389,-0.70951c0,0 -0.75,0 -0.75,-0.75c0,-0.06857 0.00627,-0.13087 0.01766,-0.18748c-0.05388,-0.10349 -0.08433,-0.22111 -0.08433,-0.34585c0,-0.35158 0.24192,-0.64666 0.56838,-0.72786l0.70258,-0.19161c0.33019,-0.10991 0.61869,-0.19956 0.88414,-0.27065c0.12217,-0.15886 0.30654,-0.2674 0.51668,-0.28918l0.92126,-0.10838l0.74719,-0.19925c0.06657,-0.01935 0.13695,-0.02973 0.20977,-0.02973c0.09895,0 0.19343,0.01916 0.27992,0.05398c0.04728,-0.00643 0.09424,-0.01272 0.14091,-0.01885z" fill="#3b1e12" stroke="none" stroke-width="0.5" stroke-linecap="butt"/><path d="M484.27174,359.86164c0,-0.27527 0.14829,-0.5159 0.36935,-0.64636l0.00565,-0.00989l0.02147,-0.00537c0.03106,-0.01663 0.06343,-0.03114 0.09692,-0.04333l0.00444,-0.00592l0.0419,-0.03404l0.02777,-0.04629l0.15355,-0.15355l0.48709,-0.56828l0.2271,-0.3028l0.20051,-0.32081l0.01703,-0.01642l0.00867,-0.02201l0.19534,-0.27347l0.15509,-0.2714l0.04965,-0.05181l0.03209,-0.06418l0.21152,-0.24677l0.18057,-0.32502l0.00318,-0.0034l0.00126,-0.00448l0.17391,-0.30435l0.03279,-0.03422l0.01839,-0.04368l0.05741,-0.07655l0.00499,-0.01497l0.09252,-0.14539l0.08866,-0.14777l0.01478,-0.01478l0.01156,-0.01817l0.00826,-0.00165l0.02105,-0.02105l0.18585,-0.21682l0.02957,-0.00164l0.01469,-0.02571l0.375,-0.09375l0.0815,0l0.00701,-0.00467l0.02103,0.00467h0.0209l0.16718,0.0418l0.12937,0.02875l0.13447,0.02689l0.28374,0.04053l0.02723,0.0111l0.0294,-0.00077l0.3913,0.08696l0.00907,0.00453h0.01014l0.69565,0.17391l0.02595,0.01384l0.02932,0.00226l0.24541,0.0818l0.23942,0.06841l0.25363,0.03623l0.01974,0.00804l0.02129,-0.00101l0.21739,0.04348l0.04283,0.02029l0.04725,0.00363l0.11923,0.03974l0.18111,0.04528l0.01529,-0.00085l0.00374,0.00561l0.03585,0.00896l0.07883,0.13794l0.0225,0.01432l0.00771,0.03855l0.05393,0.09437l0.01856,0.00803l0.00368,0.0294l0.19448,0.29171l-0.00802,0.03607l0.00334,0.00585l-0.0076,0.0133l-0.07158,0.32211l-0.02159,0.04319l0.00104,0.00836l-0.01358,0.01672l-0.00935,0.01869l-0.11215,0.13084l-0.10867,0.13375l-0.01672,0.01254l-0.01402,0.01636l-0.00841,0.00047l-0.11939,0.08954l-0.46159,0.38466l-0.23872,0.27282l-0.88977,1.2711l-0.00953,0.00827l-0.0049,0.01163l-0.26087,0.34783l-0.01939,0.01575l-0.01117,0.02234l-0.25748,0.30039l-0.20175,0.2421l-0.10641,0.14188l-0.07541,0.11311l-0.01577,0.01433l-0.00827,0.01964l-0.08986,0.11981l-0.05671,0.11343l-0.07846,0.09154l-0.00467,0.00779l-0.00661,0.01983l-0.02734,0.04296l0.00155,0.0057l-0.00617,0.01029l-0.00873,0.03929l-0.04348,0.08696l-0.07846,0.09154l-0.00467,0.00779l-0.00661,0.01983l-0.03828,0.06015l0.00281,0.0407l-0.09568,0.10525l-0.07637,0.12001l-0.04,0.008l-0.04796,0.05276l-0.0407,0.02714l-0.12997,0.15163l-0.08721,0.00485l-0.05363,0.06895l-0.38449,0.03977l-0.30435,-0.04348l-0.0083,-0.00338l-0.00893,0.00071l-0.26087,-0.04348l-0.0829,-0.03604l-0.08924,-0.01439l-0.22132,-0.09485l-0.17176,-0.02863l-0.02803,-0.01219h-0.03057l-0.66659,-0.16665l-0.23132,-0.03855l-0.10274,-0.04467l-0.10937,-0.0243l-0.12624,-0.06312l-0.06866,-0.02289l-0.02818,-0.00704l-0.16823,-0.03738l-0.01869,-0.00935l-0.0209,-0.00522l-0.00418,-0.00731l-0.13014,-0.06507l-0.04649,-0.03985l-0.03736,-0.00208l-0.09675,-0.11288l-0.11288,-0.09675l-0.00208,-0.03736l-0.03985,-0.04649l-0.04348,-0.08696l-0.08385,-0.37734l0.12813,-0.19219l-0.0008,-0.01434l0.01864,-0.01242l0.17426,-0.26139c-0.00737,-0.04219 -0.01121,-0.0856 -0.01121,-0.1299z" fill="#3b1e12" stroke="none" stroke-width="0.5" stroke-linecap="butt"/><path d="M489.7466,357.07665c-0.0411,0.2466 -0.2877,0.2055 -0.2877,0.2055l-0.28003,-0.04745c-0.4516,-0.14931 -0.8758,-0.29242 -1.32314,-0.44024c0,0 -0.23717,-0.07906 -0.15811,-0.31623c0.07906,-0.23717 0.31623,-0.15811 0.31623,-0.15811c0.43408,0.14614 0.84882,0.28243 1.28555,0.42933l0.24171,0.03951c0,0 0.2466,0.0411 0.2055,0.2877z" fill="#d7d7d7" stroke="none" stroke-width="0.5" stroke-linecap="butt"/><path d="M489.72361,358.40823c-0.1118,0.22361 -0.33541,0.1118 -0.33541,0.1118l-0.01625,-0.02049c-0.62494,-0.10676 -1.28328,-0.30989 -1.89715,-0.48448c0,0 -0.24038,-0.06868 -0.1717,-0.30906c0.06868,-0.24038 0.30906,-0.1717 0.30906,-0.1717c0.59301,0.17028 1.23777,0.37436 1.84198,0.47204l0.15766,0.06647c0,0 0.22361,0.1118 0.1118,0.33541z" fill="#d7d7d7" stroke="none" stroke-width="0.5" stroke-linecap="butt"/></g></g></svg>