<svg version="1.1" xmlns="http://www.w3.org/2000/svg" xmlns:xlink="http://www.w3.org/1999/xlink" width="26.13617" height="39.6099" viewBox="0,0,26.13617,39.6099"><g transform="translate(-469.75265,-338.652)"><g data-paper-data="{&quot;isPaintingLayer&quot;:true}" fill-rule="nonzero" stroke-linejoin="miter" stroke-miterlimit="10" stroke-dasharray="" stroke-dashoffset="0" style="mix-blend-mode: normal"><path d="M473.00001,377.2619l7,-12.08535l7,11.96449" fill="none" stroke="#08f6d3" stroke-width="2" stroke-linecap="round"/><path d="M473.9524,359.13389l6.28571,-7.41235v13.53559" fill="none" stroke="#08f6d3" stroke-width="2" stroke-linecap="round"/><path d="M486.07144,358.89218l-5.85714,-7.13036" fill="#ffffff" stroke="#08f6d3" stroke-width="2" stroke-linecap="round"/><path d="M485.42858,347.20967c0,2.46958 -2.43045,4.47158 -5.42857,4.47158c-2.99812,0 -5.42857,-2.00199 -5.42857,-4.47158c0,-2.46958 2.43045,-4.47158 5.42857,-4.47158c2.99812,0 5.42857,2.00199 5.42857,4.47158z" fill="#08f6d3" stroke="#08f6d3" stroke-width="2" stroke-linecap="butt"/><path d="M478.32393,349.52599l3.32,-0.04" fill="none" stroke="#ffffff" stroke-width="1" stroke-linecap="round"/><path d="M475.76393,345.68599l1.04,-0.92l1.2,0.72" fill="none" stroke="#ffffff" stroke-width="1" stroke-linecap="round"/><path d="M481.68393,345.36599l1.12,-0.84l1.36,0.92" fill="none" stroke="#ffffff" stroke-width="1" stroke-linecap="round"/><path d="M487.67301,341.49922c1.17848,0.39283 3.72735,2.0274 1.37129,2.96566c-1.09881,0.43758 -3.8299,-0.86016 -4.91266,-0.99716c-2.58397,-0.32695 -13.41978,1.36527 -14.2724,-0.31805c-0.667,-1.31686 2.00345,-1.39381 2.28418,-1.90701c1.69719,-3.10261 15.23768,-3.87169 15.46545,0.22806z" fill="#f5f5f5" stroke="none" stroke-width="0.5" stroke-linecap="butt"/><path d="M492.88928,352.83926c0.84541,0.73322 3.64561,3.39316 2.86302,4.45471c-2.34904,3.1864 -3.59487,2.18271 -5.94941,0.03642c-0.93255,1.29762 -2.50242,2.71595 -3.59672,3.48959c-0.22193,0.34798 -0.61135,0.57876 -1.05467,0.57876c-0.69036,0 -1.25,-0.55964 -1.25,-1.25c0,-0.29801 0.10429,-0.57166 0.27835,-0.78645c0.64012,-1.20653 2.26478,-2.98054 3.72731,-3.96882c-0.68766,-0.78895 -1.31036,-1.62876 -1.19337,-1.95635c-0.01261,-0.07124 -0.01919,-0.14456 -0.01919,-0.21942c0,-0.63823 0.47833,-1.16475 1.09605,-1.24061c1.69424,-1.66217 2.73767,-1.18547 5.09861,0.86217z" fill="#f5f5f5" stroke="none" stroke-width="0.5" stroke-linecap="butt"/><text transform="translate(489.35297,353.86015) rotate(46.1329) scale(0.05254,0.05254)" font-size="40" xml:space="preserve" fill="#000000" fill-rule="nonzero" stroke="none" stroke-width="1" stroke-linecap="butt" stroke-linejoin="miter" stroke-miterlimit="10" stroke-dasharray="" stroke-dashoffset="0" font-family="Sans Serif" font-weight="normal" text-anchor="start" style="mix-blend-mode: normal"><tspan x="0" dy="0">BAN</tspan></text></g></g></svg>