<svg version="1.1" xmlns="http://www.w3.org/2000/svg" xmlns:xlink="http://www.w3.org/1999/xlink" width="16" height="37.19182" viewBox="0,0,16,37.19182"><g transform="translate(-472,-341.07008)"><g data-paper-data="{&quot;isPaintingLayer&quot;:true}" fill-rule="nonzero" stroke-linejoin="miter" stroke-miterlimit="10" stroke-dasharray="" stroke-dashoffset="0" style="mix-blend-mode: normal"><path d="M473,377.2619l7,-12.08535l7,11.96449" fill="none" stroke="#000000" stroke-width="2" stroke-linecap="round"/><path d="M473.78572,359.13389l6.28571,-7.41235v13.53559" fill="none" stroke="#000000" stroke-width="2" stroke-linecap="round"/><path d="M486.07143,358.89218l-5.85714,-7.13036" fill="none" stroke="#000000" stroke-width="2" stroke-linecap="round"/><path d="M485.42857,347.20967c0,2.46958 -2.43045,4.47158 -5.42857,4.47158c-2.99812,0 -5.42857,-2.00199 -5.42857,-4.47158c0,-2.46958 2.43045,-4.47158 5.42857,-4.47158c2.99812,0 5.42857,2.00199 5.42857,4.47158z" fill="#000000" stroke="#000000" stroke-width="2" stroke-linecap="butt"/><path d="M476.65875,346.73725l0.05806,0.02903l-0.01049,-0.04196v-0.03465zM486.85294,353.54062l-0.00916,0.01604l0.00947,0.04263l0.01176,0.02353l0.04984,0.2243l0.05534,0.22136l0.01246,0.02492l0.04706,0.21176l0.01176,0.02353l0.04984,0.2243l0.0111,0.04439l0.02966,0.08899l0.14469,0.28938l0.09544,0.42948l0.01013,0.01773l-0.00446,0.0078l0.01069,0.0481l-0.26722,0.40083l-0.23901,0.41827l-0.0478,0.01195l-0.00498,0.00748l-0.02039,-0.00113l-0.42682,0.10671h-0.58824l-0.15595,-0.03899l-0.16028,-0.01233l-0.14004,-0.04668l-0.19804,-0.04951l-0.0346,-0.01845l-0.03909,-0.00301l-0.15641,-0.05214l-0.04439,-0.0111l-0.14829,-0.03295h-0.10663l-0.21221,-0.05305l-0.27078,-0.05416l-0.02204,-0.01044h-0.02438l-0.47059,-0.11765l-0.0346,-0.01845l-0.03909,-0.00301l-0.11741,-0.03914l-0.23307,-0.04661l-0.02204,-0.01044h-0.02438l-0.19655,-0.04914l-0.31355,-0.05226l-0.104,-0.04522h-0.08454l-0.18374,-0.04593l-0.18765,-0.02559l-0.11531,-0.04612h-0.10154l-0.09663,-0.02416l-0.09949,0.00474l-0.19702,-0.0394h-0.18867l-0.00935,0.00623l-0.02804,-0.00623h-0.02786l-0.22291,-0.05573l-0.01393,-0.0031h-3.29102l-0.01393,0.0031l-0.22291,0.05573h-0.02786l-0.02804,0.00623l-0.00935,-0.00623h-0.07103l-0.49114,0.09823l-0.08157,-0.00388l-0.09243,0.03081l-0.03909,0.00301l-0.0346,0.01845l-0.1288,0.0322l-0.07875,0.03938l-0.00557,0.00975l-0.02786,0.00697l-0.02492,0.01246l-0.2243,0.04984l-0.15298,0.03824l-0.03448,0.02956l-0.05929,0.02964l-0.00557,0.00975l-0.02786,0.00697l-0.02492,0.01246l-0.14536,0.0323l-0.02707,0.01624l-0.19385,0.12336l-0.02643,0.00881l-0.02463,0.01478l-0.01084,-0.00296l-0.11457,0.03819l-0.03909,0.00301l-0.0346,0.01845l-0.06725,0.01681l-0.20882,0.13921l-0.12579,0.04492l-0.11269,0.07171l-0.17647,0.05882l-0.1281,0.00985l-0.18836,0.04186l-0.02919,0.05108l-0.12465,0.03116l-0.11018,0.06611l-0.06234,-0.017l-0.21521,0.04782l-0.22291,0.05573h-0.02786l-0.02804,0.00623l-0.00935,-0.00623h-0.0524l-0.5,-0.125l-0.02331,-0.04078l-0.03139,-0.00217l-0.17759,-0.35518l-0.04449,-0.02966l0.00286,-0.05157l-0.22608,-0.39565l0.01561,-0.02732l-0.02101,-0.04201l0.14586,-0.4084l-0.0034,-0.07132l0.05566,-0.27831l0.05617,-0.33704l0.05956,-0.13699l0.00994,-0.04475l0.04814,-0.28885l0.04522,-0.104v-0.01929l-0.00623,-0.00935l0.00623,-0.02804v-0.02786l0.05573,-0.22291l0.04984,-0.2243l0.00973,-0.01946l0.02628,-0.10512l-0.00452,-0.0949l0.05882,-0.29412l0.0394,-0.08319v-0.07364l0.03899,-0.15595l0.01233,-0.16028l0.05882,-0.17647l0.01614,-0.02537l0.00406,-0.02979l0.09244,-0.2311l0.01035,-0.04138l-0.00407,-0.00611l0.00623,-0.02804v-0.02786l0.05573,-0.22291l0.04984,-0.2243l0.01246,-0.02492l0.00697,-0.02786l0.00975,-0.00557l0.07152,-0.14303l0.02593,-0.10372l0.0031,-0.01393v-1.76316l-0.11765,-0.47059v-0.0524l-0.00623,-0.00935l0.00623,-0.02804v-0.02786l0.05573,-0.22291l0.0031,-0.01393v-0.40379l-0.00623,-0.00935l0.00623,-0.02804v-0.02786l0.05573,-0.22291l0.0031,-0.01393v-0.9332l-0.00623,-0.00935l0.00623,-0.02804v-0.02786l0.05573,-0.22291l0.0031,-0.01393v-0.35139l0.04785,-0.19139l-0.02012,-0.07377l0.06611,-0.11018l0.03116,-0.12465l0.06639,-0.03794l0.1015,-0.16917l0.0009,-0.0009l0.02318,-0.04346l0.02389,-0.10751l0.08586,-0.17173l0.03635,-0.10905l0.03864,-0.06072l0.01561,-0.07026l0.08586,-0.17173l0.03635,-0.10905l0.03864,-0.06072l0.01561,-0.07026l0.02704,-0.05408l0.03635,-0.10905l0.10592,-0.16644l0.00424,-0.07635l0.09756,-0.08362l0.06898,-0.1084l0.03421,-0.00684l0.09984,-0.14976l0.0737,-0.067l0.02144,-0.03574l0.02352,-0.07055l0.10592,-0.16644l0.00424,-0.07635l0.09756,-0.08362l0.06898,-0.1084l0.07498,-0.015l0.14979,-0.12839l0.08337,-0.04169l0.10706,-0.11776l0.16836,-0.19641l0.01531,-0.00085l0.16548,-0.11032l0.12579,-0.04492l0.11269,-0.07171l0.02643,-0.00881l0.04937,-0.02962l0.16315,-0.11783l0.0997,-0.03988l0.00652,-0.00391l0.00194,0.00053l0.18595,-0.07438l0.02979,-0.00406l0.02537,-0.01614l0.28552,-0.09517l0.17173,-0.08586l0.04142,-0.00921l0.0344,-0.02484l1.13785,-0.45514l0.19809,-0.09905l0.07026,-0.01561l0.06072,-0.03864l0.10528,-0.03509l0.00507,-0.00887l0.02786,-0.00697l0.02492,-0.01246l0.2243,-0.04984l0.22291,-0.05573h0.02786l0.02804,-0.00623l0.00935,0.00623h0.40534l0.02941,-0.05147l0.5,-0.125h0.64706l0.09663,0.02416l0.09949,-0.00474l0.57242,0.11448l0.33704,0.05617l0.01518,0.0066l0.01654,-0.00079l0.19702,0.0394h0.01863l0.07451,0.01863l0.00396,0.00079l0.00088,0.00042l0.14356,0.03589l0.2243,0.04984l0.02492,0.01246l0.02786,0.00697l0.00507,0.00887l0.10528,0.03509l0.02537,0.01614l0.02979,0.00406l0.11531,0.04612h0.04271l0.5,0.125l0.01959,0.03428l0.03943,0.00219l0.05016,0.05852l0.01451,0.00322l0.02492,0.01246l0.02786,0.00697l0.00557,0.00975l0.29458,0.14729l0.04798,0.04112l0.05951,0.02125l0.17647,0.11765l0.01911,0.02102l0.02619,0.01103l0.16316,0.12237l0.09628,0.04814l0.01115,-0.00139l0.02229,0.01811l0.02492,0.01246l0.17446,0.14953l0.17833,0.14489l0.01672,0.02229l0.02181,0.01869l0.00062,0.01122l0.00205,0.00273l0.01194,0.00066l0.129,0.1505l0.1505,0.129l0.00136,0.02451l0.13658,0.11097l0.01672,0.02229l0.02181,0.01869l0.00062,0.01122l0.09468,0.12624l0.12622,0.12622l0.08271,0.13784l0.10461,0.12205l0.03098,0.06196l0.08311,0.12467l0.04492,0.12579l0.07171,0.11269l0.02411,0.07233l0.11999,0.19999l0.01142,0.03751l0.02552,0.02977l0.05882,0.11765l0.01561,0.07026l0.03864,0.06072l0.03635,0.10905l0.37998,0.75996l0.01561,0.07026l0.03864,0.06072l0.05882,0.17647l0.00301,0.03909l0.01845,0.0346l0.04951,0.19804l0.04668,0.14004l0.01233,0.16028l0.03899,0.15595v0.01419l0.00751,0.02252l0.01233,0.16028l0.03899,0.15595v1.05882l-0.03899,0.15595l-0.01233,0.16028l-0.04668,0.14004l-0.03982,0.15929l-0.03865,0.23191v0.15253l-0.03899,0.15595l-0.01233,0.16028l-0.11765,0.35294l-0.03864,0.06072l-0.00922,0.04147l-0.03789,0.18946l-0.02705,0.05711l-0.00485,0.063l-0.05882,0.17647l-0.07171,0.11269l-0.04492,0.12579l-0.04336,0.06504l-0.00433,0.01299l-0.04951,0.19804l-0.00257,0.00482l-0.0233,0.09321l-0.0031,0.01393v1.64306l0.00122,0.00122l0.1015,0.16917l0.06639,0.03794l0.03116,0.12465l0.06611,0.11018l-0.017,0.06234l0.04504,0.20267l0.04141,0.08282l0.00975,0.00557l0.00697,0.02786l0.01246,0.02492l0.02592,0.11665zM482.92726,352.11953l-0.03022,-0.07858l-0.07917,-0.01759l0.05165,0.09039z" fill="#e19681" stroke="none" stroke-width="0.5" stroke-linecap="butt"/><path d="M474.65005,354.21639c-0.4993,-0.02642 -0.47288,-0.52572 -0.47288,-0.52572l0.04851,-0.90991c0.46739,-3.56812 1.97334,-6.4602 3.72166,-9.54547c0,0 0.24651,-0.43501 0.68152,-0.1885c0.43501,0.24651 0.1885,0.68152 0.1885,0.68152c-1.67599,2.95763 -3.15152,5.72099 -3.59584,9.14361l-0.04575,0.87159c0,0 -0.02642,0.4993 -0.52572,0.47288z" fill="#bd7e6c" stroke="none" stroke-width="0.5" stroke-linecap="butt"/><path d="M478.38235,354.09944c-0.5,0 -0.5,-0.5 -0.5,-0.5v-0.05882c0.00686,-3.4539 1.09294,-7.12288 1.89616,-10.46963c0,0 0.11669,-0.48619 0.60288,-0.36951c0.48619,0.11669 0.36951,0.60288 0.36951,0.60288c-0.78279,3.26164 -1.87597,6.86978 -1.86855,10.23625v0.05882c0,0 0,0.5 -0.5,0.5z" fill="#bd7e6c" stroke="none" stroke-width="0.5" stroke-linecap="butt"/><path d="M485.364,355.19143c-0.47434,0.15811 -0.63246,-0.31623 -0.63246,-0.31623l-0.08448,-0.33458c0.00927,-3.42717 -1.24094,-7.37236 -2.54977,-10.51357c0,0 -0.19231,-0.46154 0.26923,-0.65385c0.46154,-0.19231 0.65385,0.26923 0.65385,0.26923c1.36353,3.27246 2.61814,7.32873 2.6267,10.89819l0.03317,0.01836c0,0 0.15811,0.47434 -0.31623,0.63246z" fill="#bd7e6c" stroke="none" stroke-width="0.5" stroke-linecap="butt"/><path d="M473.03125,346.07003c0.39106,-0.68435 0.84323,-0.92449 1.33881,-0.94115c0.98305,-0.03304 2.13692,0.81329 3.32347,0.81615c1.5379,0.0037 3.07586,0.01372 4.6137,0c0.88892,-0.00793 3.30645,-0.99739 4.02992,-0.75623c1.00978,0.33659 1.25079,1.28362 0.39131,1.90066c-2.2049,1.58294 -8.88101,1.07091 -10.33361,0.61555c-0.35432,-0.11107 -2.68617,-0.44946 -2.87113,-0.77316z" fill="#ffffff" stroke="none" stroke-width="0.5" stroke-linecap="butt"/><path d="M474.675,346.67003c0,-0.55228 0.44772,-1 1,-1c0.55228,0 1,0.44772 1,1c0,0.55228 -0.44772,1 -1,1c-0.55228,0 -1,-0.44772 -1,-1z" fill="#0077ff" stroke="none" stroke-width="0.5" stroke-linecap="butt"/><path d="M478.325,347.02003c0,-0.55228 0.44772,-1 1,-1c0.55228,0 1,0.44772 1,1c0,0.55228 -0.44772,1 -1,1c-0.55228,0 -1,-0.44772 -1,-1z" fill="#0077ff" stroke="none" stroke-width="0.5" stroke-linecap="butt"/><path d="M482.825,346.87003c0,-0.55228 0.44772,-1 1,-1c0.55228,0 1,0.44772 1,1c0,0.55228 -0.44772,1 -1,1c-0.55228,0 -1,-0.44772 -1,-1z" fill="#0077ff" stroke="none" stroke-width="0.5" stroke-linecap="butt"/></g></g></svg>