<svg version="1.1" xmlns="http://www.w3.org/2000/svg" xmlns:xlink="http://www.w3.org/1999/xlink" width="16" height="36.52381" viewBox="0,0,16,36.52381"><g transform="translate(-472,-341.73809)"><g data-paper-data="{&quot;isPaintingLayer&quot;:true}" fill-rule="nonzero" stroke-linejoin="miter" stroke-miterlimit="10" stroke-dasharray="" stroke-dashoffset="0" style="mix-blend-mode: normal"><path d="M473,377.2619l7,-12.08535l7,11.96449" fill="none" stroke="#000000" stroke-width="2" stroke-linecap="round"/><path d="M473.78572,359.13389l6.28571,-7.41235v13.53559" fill="none" stroke="#000000" stroke-width="2" stroke-linecap="round"/><path d="M480.21429,351.76182l5.85714,7.13036" fill="none" stroke="#000000" stroke-width="2" stroke-linecap="round"/><path d="M485.42857,347.20967c0,2.46958 -2.43045,4.47158 -5.42857,4.47158c-2.99812,0 -5.42857,-2.00199 -5.42857,-4.47158c0,-2.46958 2.43045,-4.47158 5.42857,-4.47158c2.99812,0 5.42857,2.00199 5.42857,4.47158z" fill="#000000" stroke="#000000" stroke-width="2" stroke-linecap="butt"/><path d="M475.71429,343.64146c0,-0.13807 0.11193,-0.25 0.25,-0.25c0.13807,0 0.25,0.11193 0.25,0.25c0,0.13807 -0.11193,0.25 -0.25,0.25c-0.13807,0 -0.25,-0.11193 -0.25,-0.25z" fill="#3d302c" stroke="none" stroke-width="0.5" stroke-linecap="butt"/><path d="M477.57143,342.92717c0,-0.13807 0.11193,-0.25 0.25,-0.25c0.13807,0 0.25,0.11193 0.25,0.25c0,0.13807 -0.11193,0.25 -0.25,0.25c-0.13807,0 -0.25,-0.11193 -0.25,-0.25z" fill="#3d302c" stroke="none" stroke-width="0.5" stroke-linecap="butt"/><path d="M477.07143,343.9986c0,-0.13807 0.11193,-0.25 0.25,-0.25c0.13807,0 0.25,0.11193 0.25,0.25c0,0.13807 -0.11193,0.25 -0.25,0.25c-0.13807,0 -0.25,-0.11193 -0.25,-0.25z" fill="#3d302c" stroke="none" stroke-width="0.5" stroke-linecap="butt"/><path d="M478.92857,343.35574c0,-0.13807 0.11193,-0.25 0.25,-0.25c0.13807,0 0.25,0.11193 0.25,0.25c0,0.13807 -0.11193,0.25 -0.25,0.25c-0.13807,0 -0.25,-0.11193 -0.25,-0.25z" fill="#3d302c" stroke="none" stroke-width="0.5" stroke-linecap="butt"/><path d="M479.14286,342.57003c0,-0.13807 0.11193,-0.25 0.25,-0.25c0.13807,0 0.25,0.11193 0.25,0.25c0,0.13807 -0.11193,0.25 -0.25,0.25c-0.13807,0 -0.25,-0.11193 -0.25,-0.25z" fill="#3d302c" stroke="none" stroke-width="0.5" stroke-linecap="butt"/><path d="M480.35714,344.28431c0,-0.13807 0.11193,-0.25 0.25,-0.25c0.13807,0 0.25,0.11193 0.25,0.25c0,0.13807 -0.11193,0.25 -0.25,0.25c-0.13807,0 -0.25,-0.11193 -0.25,-0.25z" fill="#3d302c" stroke="none" stroke-width="0.5" stroke-linecap="butt"/><path d="M480.64286,342.85574c0,-0.13807 0.11193,-0.25 0.25,-0.25c0.13807,0 0.25,0.11193 0.25,0.25c0,0.13807 -0.11193,0.25 -0.25,0.25c-0.13807,0 -0.25,-0.11193 -0.25,-0.25z" fill="#3d302c" stroke="none" stroke-width="0.5" stroke-linecap="butt"/><path d="M482.92857,344.85574c0,-0.13807 0.11193,-0.25 0.25,-0.25c0.13807,0 0.25,0.11193 0.25,0.25c0,0.13807 -0.11193,0.25 -0.25,0.25c-0.13807,0 -0.25,-0.11193 -0.25,-0.25z" fill="#3d302c" stroke="none" stroke-width="0.5" stroke-linecap="butt"/><path d="M481.78571,344.07003c0,-0.13807 0.11193,-0.25 0.25,-0.25c0.13807,0 0.25,0.11193 0.25,0.25c0,0.13807 -0.11193,0.25 -0.25,0.25c-0.13807,0 -0.25,-0.11193 -0.25,-0.25z" fill="#3d302c" stroke="none" stroke-width="0.5" stroke-linecap="butt"/><path d="M482.5,342.92717c0,-0.13807 0.11193,-0.25 0.25,-0.25c0.13807,0 0.25,0.11193 0.25,0.25c0,0.13807 -0.11193,0.25 -0.25,0.25c-0.13807,0 -0.25,-0.11193 -0.25,-0.25z" fill="#3d302c" stroke="none" stroke-width="0.5" stroke-linecap="butt"/><path d="M475.14286,344.71289c0,-0.13807 0.11193,-0.25 0.25,-0.25c0.13807,0 0.25,0.11193 0.25,0.25c0,0.13807 -0.11193,0.25 -0.25,0.25c-0.13807,0 -0.25,-0.11193 -0.25,-0.25z" fill="#3d302c" stroke="none" stroke-width="0.5" stroke-linecap="butt"/><path d="M484.14286,344.57003c0,-0.13807 0.11193,-0.25 0.25,-0.25c0.13807,0 0.25,0.11193 0.25,0.25c0,0.13807 -0.11193,0.25 -0.25,0.25c-0.13807,0 -0.25,-0.11193 -0.25,-0.25z" fill="#3d302c" stroke="none" stroke-width="0.5" stroke-linecap="butt"/></g></g></svg>